<svg xmlns="http://www.w3.org/2000/svg" viewBox="0 0 32 32"><path d="M20.472 10.976h-.11c.39-.153.661-.526.661-.963V6.429c0-.569-.46-1.03-1.028-1.032l-2.958-.013c-3.737 0-5.062 2.72-5.062 5.049v.543c-.555.02-.998.474-.998 1.032V16c0 .56.444 1.014.998 1.032v8.947c0 .57.462 1.032 1.032 1.032h3.992c.57 0 1.032-.462 1.032-1.032v-8.947h2.091c.536 0 .982-.408 1.027-.942l.351-3.992a1.035 1.035 0 00-1.027-1.122zm-1.296 3.992h-2.178c-.57 0-1.032.462-1.032 1.032v8.946h-1.928V16c0-.56-.443-1.014-.998-1.032V13.04c.555-.02.997-.474.998-1.032v-1.574c0-1.115.39-2.984 2.994-2.984l1.926.008v1.52l-1.035-.006c-1.864 0-1.958 1.384-1.958 1.662v1.374c0 .57.462 1.032 1.032 1.032h2.348l-.17 1.928z"/><path d="M23.664 0H8.332C3.505 0 0 3.506 0 8.334v15.332C0 28.494 3.504 32 8.331 32h15.334C28.495 32 32 28.494 32 23.666V8.334C32 3.505 28.494 0 23.664 0zm6.272 23.666c0 3.69-2.579 6.269-6.272 6.269H8.332c-3.689 0-6.266-2.578-6.266-6.269V8.334c0-3.691 2.578-6.27 6.266-6.27h15.334c3.692 0 6.27 2.578 6.27 6.27v15.332z"/></svg>