<svg xmlns="http://www.w3.org/2000/svg" viewBox="0 0 32 32"><path d="M18.768 13.82a3.43 3.43 0 00-2.77-1.422h-.001a3.429 3.429 0 00-2.77 1.422 3.362 3.362 0 00-.645 1.988v.006a3.418 3.418 0 003.416 3.414 3.421 3.421 0 003.418-3.416c0-.717-.224-1.406-.648-1.993zm-2.77 3.344c-.745 0-1.35-.604-1.351-1.349 0-.282.088-.554.256-.784a1.34 1.34 0 011.095-.566h.001c.436 0 .837.206 1.096.565.168.233.257.504.257.786A1.352 1.352 0 0116 17.166h-.002z"/><path d="M25.981 13.97h-5.122a1.032 1.032 0 00-1 1.288l-.002-.007c.135.543.257.799.35.934.006.04.006.092.006.164 0 2.226-1.812 3.904-4.214 3.904-2.482 0-4.215-1.541-4.215-3.748 0-.168.01-.21.01-.21.01-.036.025-.065.04-.104.072-.173.181-.435.306-.941a1.034 1.034 0 00-1.002-1.28H6.02a1.032 1.032 0 100 2.064h3.725a3.507 3.507 0 00-.027.439v.034-.002c0 3.314 2.7 5.813 6.28 5.813 3.578 0 6.278-2.566 6.28-5.968 0-.12-.004-.222-.011-.315h3.714a1.032 1.032 0 100-2.064zm-.387-4.57h-.002l-4.43.009-.01-3.394a1.032 1.032 0 00-1.032-1.03h-.002a1.032 1.032 0 00-1.03 1.032v.003l.011 4.426c.001.569.463 1.03 1.032 1.03h.004l5.462-.011a1.032 1.032 0 00-.001-2.064h-.001z"/><path d="M21.885 4.989H10.112c-2.728 0-5.122 2.214-5.122 4.738V21.5c0 2.48 2.364 5.511 5.122 5.511h11.774c2.76 0 5.126-3.031 5.126-5.512V9.728c0-2.524-2.395-4.738-5.126-4.738zM24.946 21.5c0 1.578-1.66 3.446-3.062 3.446H10.111c-1.4 0-3.058-1.868-3.058-3.446V9.727c0-1.374 1.486-2.674 3.058-2.674h11.774c1.574 0 3.062 1.299 3.062 2.674V21.5z"/><path d="M23.676 0H8.322C3.421 0 0 3.264 0 7.938v15.35C0 28.174 3.655 32 8.322 32h15.354C28.344 32 32 28.174 32 23.288V7.938C32 3.264 28.577 0 23.676 0zm6.259 23.288c0 3.789-2.69 6.648-6.259 6.648H8.322c-3.568 0-6.258-2.858-6.258-6.648V7.938c0-3.569 2.456-5.874 6.258-5.874h15.354c3.802 0 6.259 2.304 6.259 5.874v15.35z"/></svg>