<svg aria-hidden="true" style="position:absolute;width:0;height:0" xmlns="http://www.w3.org/2000/svg" overflow="hidden"><defs><symbol id="facebook" viewBox="0 0 32 32"><path d="M20.472 10.976h-.11c.39-.153.661-.526.661-.963V6.429c0-.569-.46-1.03-1.028-1.032l-2.958-.013c-3.737 0-5.062 2.72-5.062 5.049v.543c-.555.02-.998.474-.998 1.032V16c0 .56.444 1.014.998 1.032v8.947c0 .57.462 1.032 1.032 1.032h3.992c.57 0 1.032-.462 1.032-1.032v-8.947h2.091c.536 0 .982-.408 1.027-.942l.351-3.992a1.035 1.035 0 00-1.027-1.122zm-1.296 3.992h-2.178c-.57 0-1.032.462-1.032 1.032v8.946h-1.928V16c0-.56-.443-1.014-.998-1.032V13.04c.555-.02.997-.474.998-1.032v-1.574c0-1.115.39-2.984 2.994-2.984l1.926.008v1.52l-1.035-.006c-1.864 0-1.958 1.384-1.958 1.662v1.374c0 .57.462 1.032 1.032 1.032h2.348l-.17 1.928z"/><path d="M23.664 0H8.332C3.505 0 0 3.506 0 8.334v15.332C0 28.494 3.504 32 8.331 32h15.334C28.495 32 32 28.494 32 23.666V8.334C32 3.505 28.494 0 23.664 0zm6.272 23.666c0 3.69-2.579 6.269-6.272 6.269H8.332c-3.689 0-6.266-2.578-6.266-6.269V8.334c0-3.691 2.578-6.27 6.266-6.27h15.334c3.692 0 6.27 2.578 6.27 6.27v15.332z"/></symbol><symbol id="instagram" viewBox="0 0 32 32"><path d="M18.768 13.82a3.43 3.43 0 00-2.77-1.422h-.001a3.429 3.429 0 00-2.77 1.422 3.362 3.362 0 00-.645 1.988v.006a3.418 3.418 0 003.416 3.414 3.421 3.421 0 003.418-3.416c0-.717-.224-1.406-.648-1.993zm-2.77 3.344c-.745 0-1.35-.604-1.351-1.349 0-.282.088-.554.256-.784a1.34 1.34 0 011.095-.566h.001c.436 0 .837.206 1.096.565.168.233.257.504.257.786A1.352 1.352 0 0116 17.166h-.002z"/><path d="M25.981 13.97h-5.122a1.032 1.032 0 00-1 1.288l-.002-.007c.135.543.257.799.35.934.006.04.006.092.006.164 0 2.226-1.812 3.904-4.214 3.904-2.482 0-4.215-1.541-4.215-3.748 0-.168.01-.21.01-.21.01-.036.025-.065.04-.104.072-.173.181-.435.306-.941a1.034 1.034 0 00-1.002-1.28H6.02a1.032 1.032 0 100 2.064h3.725a3.507 3.507 0 00-.027.439v.034-.002c0 3.314 2.7 5.813 6.28 5.813 3.578 0 6.278-2.566 6.28-5.968 0-.12-.004-.222-.011-.315h3.714a1.032 1.032 0 100-2.064zm-.387-4.57h-.002l-4.43.009-.01-3.394a1.032 1.032 0 00-1.032-1.03h-.002a1.032 1.032 0 00-1.03 1.032v.003l.011 4.426c.001.569.463 1.03 1.032 1.03h.004l5.462-.011a1.032 1.032 0 00-.001-2.064h-.001z"/><path d="M21.885 4.989H10.112c-2.728 0-5.122 2.214-5.122 4.738V21.5c0 2.48 2.364 5.511 5.122 5.511h11.774c2.76 0 5.126-3.031 5.126-5.512V9.728c0-2.524-2.395-4.738-5.126-4.738zM24.946 21.5c0 1.578-1.66 3.446-3.062 3.446H10.111c-1.4 0-3.058-1.868-3.058-3.446V9.727c0-1.374 1.486-2.674 3.058-2.674h11.774c1.574 0 3.062 1.299 3.062 2.674V21.5z"/><path d="M23.676 0H8.322C3.421 0 0 3.264 0 7.938v15.35C0 28.174 3.655 32 8.322 32h15.354C28.344 32 32 28.174 32 23.288V7.938C32 3.264 28.577 0 23.676 0zm6.259 23.288c0 3.789-2.69 6.648-6.259 6.648H8.322c-3.568 0-6.258-2.858-6.258-6.648V7.938c0-3.569 2.456-5.874 6.258-5.874h15.354c3.802 0 6.259 2.304 6.259 5.874v15.35z"/></symbol><symbol id="skype" viewBox="0 0 32 32"><path d="M26.154 16.1c0-5.474-4.512-9.927-10.056-9.927-.442 0-.89.03-1.338.089a6.22 6.22 0 00-2.983-.752h-.005c-3.453 0-6.263 2.778-6.263 6.193 0 .968.23 1.923.67 2.784a9.636 9.636 0 00-.134 1.613c0 5.474 4.51 9.928 10.054 9.928.497 0 .999-.038 1.494-.11a6.28 6.28 0 002.632.572c3.453 0 6.263-2.778 6.263-6.19v-.016a6.06 6.06 0 00-.511-2.442l.015.039a9.94 9.94 0 00.162-1.781zm-5.928 8.326h-.012a4.211 4.211 0 01-2.005-.504l.023.011a1.014 1.014 0 00-.673-.103l.006-.001a8.215 8.215 0 01-1.466.132c-4.405 0-7.989-3.527-7.989-7.862 0-.531.054-1.062.162-1.58a1.028 1.028 0 00-.127-.742l.003.005a4.008 4.008 0 01-.574-2.08c0-2.276 1.883-4.128 4.198-4.128.793 0 1.567.221 2.238.638.214.134.47.185.716.142a7.999 7.999 0 011.371-.117h.001c4.406 0 7.99 3.528 7.99 7.863 0 .566-.061 1.134-.182 1.688a1.028 1.028 0 00.088.691l-.003-.006c.286.571.431 1.185.431 1.827 0 2.276-1.883 4.127-4.198 4.127z"/><path d="M23.563 0H8.433C3.704 0 0 3.705 0 8.434v15.131c0 4.73 3.704 8.434 8.432 8.434h15.131c4.731 0 8.437-3.705 8.437-8.434V8.434C32 3.704 28.294 0 23.563 0zm6.372 23.566c0 3.632-2.739 6.37-6.372 6.37H8.433c-3.63 0-6.368-2.738-6.368-6.37V8.435c0-3.632 2.738-6.37 6.368-6.37h15.13c3.632 0 6.372 2.738 6.372 6.37v15.131z"/><path d="M19.792 16.765a2.775 2.775 0 00-1.09-1.088l-.014-.007a4.634 4.634 0 00-.755-.334l-.034-.01c-.289-.1-.715-.223-1.147-.33l-.127-.027-.778-.2c-.808-.177-1.108-.332-1.194-.386a.677.677 0 01-.248-.28l-.002-.004c-.074-.15-.11-.348-.11-.587 0-.547.195-.771.364-.903.315-.246.855-.376 1.562-.376.643 0 1.128.133 1.438.394.174.146.408.413.43 1.036.027.555.483.995 1.043.995h.026-.001c.554-.02.996-.474.996-1.031l-.001-.038v.002c-.037-1.056-.44-1.936-1.166-2.544-.691-.583-1.622-.878-2.766-.878-1.19 0-2.142.275-2.835.816-.526.414-1.155 1.189-1.155 2.529 0 .554.107 1.056.318 1.488.224.464.557.841.994 1.122.418.266 1.01.476 1.772.638l.815.212c.523.133.893.236 1.107.308.168.058.318.12.448.193.125.064.226.16.294.277l.002.003c.072.131.108.311.108.535 0 .627-.229.894-.426 1.056-.349.283-.895.427-1.624.427-.717 0-1.261-.148-1.618-.44-.201-.164-.472-.464-.508-1.163a1.032 1.032 0 10-2.061.106v-.003c.056 1.126.48 2.021 1.262 2.659.734.6 1.718.905 2.924.905 1.217 0 2.202-.3 2.93-.89.776-.634 1.186-1.552 1.186-2.656 0-.574-.121-1.087-.36-1.525z"/></symbol><symbol id="viber" viewBox="0 0 32 32"><path d="M17.206 6.908c4.227.14 8.031 4.037 7.979 8.176v.014c0 .566.455 1.026 1.019 1.033h.014c.566 0 1.025-.455 1.032-1.019v-.001c.066-5.291-4.595-10.088-9.976-10.265-.563-.046-1.046.428-1.066.997l-.001.034c0 .558.442 1.012.996 1.031h.002z"/><path d="M16.963 10.342c2.629.31 4.752 2.509 4.73 4.902v.01c0 .567.458 1.027 1.024 1.032h.009c.567 0 1.027-.457 1.032-1.022v-.001c.029-3.415-2.911-6.542-6.554-6.971a1.033 1.033 0 00-.248 2.05l.006.001z"/><path d="M25.782 19.962l-.297-.227c-.542-.427-1.109-.815-1.657-1.19l-.366-.251c-1.006-.691-1.962-.958-2.84-.79-.824.157-1.54.678-2.125 1.547-.138.203-.27.398-.869.132-1.048-.466-1.954-1.055-2.69-1.752l-1.806-2.572c-.304-.712-.138-.926.275-1.202.522-.349 1.608-1.074 1.528-2.53-.082-1.469-2.984-5.351-4.372-5.85a2.917 2.917 0 00-1.958-.01c-1.51.498-2.598 1.394-3.144 2.589-.525 1.146-.503 2.472.062 3.83 2.889 6.96 8.051 12.049 15.344 15.127.375.159.76.242 1.015.299l.174.04c.095.025.194.034.292.034 2.117 0 4.274-1.906 4.895-3.63.71-1.968-.65-2.986-1.463-3.594zm-.48 2.893c-.395 1.098-1.812 2.203-2.866 2.262-.069-.013-.106-.022-.144-.03l.032.006c-.202-.045-.453-.099-.653-.184-6.776-2.861-11.566-7.577-14.241-14.017-.338-.815-.37-1.568-.09-2.178.303-.659.965-1.174 1.916-1.488.12-.04.228-.06.33-.06h.001c.094 0 .185.018.268.05l-.005-.002c.723.333 2.9 3.245 3.025 4.027.01.168-.028.307-.611.696-.78.521-1.944 1.712-.973 3.857a1 1 0 00.094.166l1.922 2.738c.038.054.08.104.126.15.924.895 2.054 1.642 3.357 2.221 1.384.619 2.632.304 3.419-.864.266-.397.534-.622.798-.673.4-.076.918.21 1.283.462l.37.254c.524.357 1.048.715 1.544 1.107.111.088.226.173.339.258.88.658.921.79.758 1.241z"/><path d="M23.416 0H8.584C3.931 0 0 3.932 0 8.584v14.83C0 28.068 3.931 32 8.584 32h14.832C28.068 32 32 28.068 32 23.414V8.584C32 3.932 28.069 0 23.416 0zm6.52 23.414c0 3.534-2.986 6.521-6.52 6.521H8.584c-3.533 0-6.52-2.985-6.52-6.52V8.585c0-3.533 2.987-6.52 6.52-6.52h14.832c3.534 0 6.52 2.986 6.52 6.52v14.83z"/></symbol><symbol id="youtube" viewBox="0 0 32 32"><path d="M19.6 14.838l-4.93-2.682a1.032 1.032 0 00-1.526.906v.001l.002 5.342a1.035 1.035 0 001.032 1.032c.169 0 .338-.04.491-.123l4.927-2.66a1.035 1.035 0 00.009-1.812l-.005-.003zm-4.389 1.837l-.001-1.876 1.73.942-1.728.934z"/><path d="M23.355 0H8.765C4.095 0-.001 4.039-.001 8.644v14.589C-.001 27.822 4.177 32 8.765 32h14.589C27.96 32 32 27.903 32 23.233V8.644C32 4.04 27.96 0 23.355 0zm6.58 23.233c0 3.508-3.136 6.702-6.58 6.702H8.765c-3.444 0-6.701-3.256-6.701-6.702V8.644c0-3.443 3.194-6.579 6.701-6.579h14.589c3.444 0 6.581 3.136 6.581 6.579v14.589z"/><path d="M25.034 9.491c-.926-1.006-1.973-1.131-2.51-1.194-2.546-.192-6.386-.313-6.456-.314h-.042c-.038.002-3.872.122-6.464.318a3.798 3.798 0 00-2.438 1.234l-.003.003c-.744.784-.948 2.197-.984 2.499-.09.943-.144 2.048-.15 3.165v1.453c0 1.568.142 3.108.15 3.188.029.276.214 1.696.95 2.474.832.91 1.848 1.037 2.394 1.104.068.008.128.015.27.038 1.488.15 6.094.195 6.299.198.158 0 3.887-.008 6.449-.2l.152-.017c.432-.046 1.445-.153 2.322-1.11.752-.795.924-2.218.954-2.541.005-.064.086-1.584.086-3.134v-1.442a66.57 66.57 0 00-.086-3.167c-.016-.286-.139-1.757-.894-2.555zm-1.084 7.164c0 1.478-.08 2.978-.078 2.978-.043.442-.227 1.096-.409 1.29-.36.393-.7.429-1.028.463l-.089.011c-2.485.186-6.259.194-6.285.194-.046 0-4.705-.046-6.008-.174-.088-.018-.196-.031-.317-.046-.378-.048-.807-.1-1.138-.462-.178-.187-.359-.83-.408-1.272a37.098 37.098 0 01-.138-2.983v-1.442c0-1.462.138-2.952.138-2.952.058-.463.25-1.112.441-1.317a1.771 1.771 0 011.124-.591l.008-.001c2.387-.179 5.953-.294 6.3-.306.346.01 3.916.126 6.306.307.311.038.738.088 1.154.542.146.154.312.77.344 1.263 0 .016.082 1.562.082 3.054v1.442z"/></symbol><symbol id="call" viewBox="0 0 32 32"><path d="M4.656.629a1.997 1.997 0 00-1.391.651L.67 4.133c.004-.008-.01-.007-.083.097a.608.608 0 00-.088.172l-.001.004C-.559 7.768.15 11.469 1.874 14.989c1.724 3.52 4.475 6.888 7.633 9.652 3.158 2.765 6.721 4.926 10.12 5.999 3.397 1.073 6.691 1.058 9.131-.714a.598.598 0 00.076-.064c.063-.064.065-.073.056-.062l.01-.012 2.582-2.841a2.01 2.01 0 00.52-1.353c0-.588-.251-1.117-.652-1.486l-6.129-5.572a2.01 2.01 0 00-1.353-.52c-.588 0-1.117.251-1.486.652l-2.772 3.049c-2.25-.652-4.174-1.756-6.023-3.439-1.85-1.682-3.133-3.495-3.994-5.672l2.77-3.048c.323-.357.521-.832.521-1.354 0-.588-.251-1.117-.652-1.486L6.105 1.146A1.995 1.995 0 004.653.629h.005zm.061 1.25l.028-.001c.198 0 .378.077.512.202l6.125 5.571a.737.737 0 01.051 1.061l-3.064 3.366a.627.627 0 00-.123.644l-.001-.004c.93 2.536 2.43 4.618 4.493 6.495s4.275 3.174 6.888 3.858a.635.635 0 00.626-.184l3.064-3.367a.736.736 0 011.06-.049l6.127 5.571a.735.735 0 01.048 1.059l-2.56 2.816c-2.003 1.439-4.826 1.519-7.986.52-3.172-1-6.617-3.076-9.666-5.744-3.048-2.668-5.701-5.926-7.333-9.254-1.613-3.295-2.199-6.625-1.311-9.56L4.196 2.13a.747.747 0 01.518-.251h.002z"/></symbol></defs></svg>