<svg aria-hidden="true" style="position: absolute; width: 0; height: 0; overflow: hidden;" version="1.1" xmlns="http://www.w3.org/2000/svg" xmlns:xlink="http://www.w3.org/1999/xlink">
<defs>
<symbol id="audio_book" viewBox="0 0 32 32">
<path d="M2.56 27.3h10.273c0.519 1.060 1.59 1.777 2.828 1.777 0.004 0 0.008 0 0.012-0h0.648c0.004 0 0.008 0 0.012 0 1.238 0 2.309-0.717 2.819-1.759l0.008-0.018h10.279c1.059 0 1.92-0.861 1.92-1.92v-18.4c0-1.059-0.861-1.92-1.92-1.92h-1.037v-0.858c0-0.705-0.575-1.28-1.28-1.28h-22.253c-0.705 0-1.28 0.575-1.28 1.28v0.858h-1.030c-1.059 0-1.92 0.861-1.92 1.92v18.4c0 1.059 0.861 1.92 1.92 1.92zM27.122 23.351h-10.482v-14.871c2.423 0.317 4.301 2.39 4.301 4.897v0.577l-0.152-0.033c-0.041-0.009-0.089-0.015-0.137-0.015-0.305 0-0.56 0.213-0.624 0.498l-0.001 0.004-1.019 4.635c-0.009 0.041-0.015 0.088-0.015 0.137 0 0.305 0.213 0.56 0.498 0.624l0.004 0.001 2.202 0.485c0.114 0.024 0.23 0.036 0.346 0.036 0.774 0 1.434-0.53 1.602-1.29l0.589-2.682c0.024-0.105 0.038-0.226 0.038-0.35 0-0.78-0.544-1.433-1.273-1.6l-0.011-0.002-0.766-0.168v-0.86c0-3.215-2.451-5.868-5.581-6.191v-2.982h10.483l-0.001 19.149zM21.139 15.309l1.572 0.346c0.196 0.044 0.316 0.23 0.273 0.427l-0.589 2.681c-0.044 0.164-0.191 0.283-0.366 0.283-0.021 0-0.042-0.002-0.063-0.005l0.002 0-1.574-0.347 0.744-3.385zM4.87 4.203h10.49v2.982c-3.134 0.32-5.587 2.974-5.587 6.191v0.859l-0.768 0.17c-0.434 0.097-0.795 0.357-1.023 0.71l-0.004 0.006c-0.162 0.248-0.258 0.551-0.258 0.877 0 0.126 0.014 0.249 0.042 0.367l-0.002-0.011 0.588 2.678c0.167 0.745 0.823 1.293 1.607 1.293 0.123 0 0.242-0.013 0.357-0.039l-0.011 0.002 2.192-0.484c0.289-0.066 0.502-0.32 0.502-0.625 0-0.048-0.005-0.096-0.016-0.141l0.001 0.004-1.019-4.637c-0.065-0.289-0.32-0.502-0.624-0.502-0.049 0-0.097 0.006-0.143 0.016l0.004-0.001-0.146 0.032v-0.576c0-2.51 1.882-4.584 4.307-4.899v14.874h-10.49v-19.149zM10.849 15.309l0.745 3.385-1.565 0.346c-0.023 0.005-0.049 0.008-0.076 0.008-0.172 0-0.317-0.12-0.354-0.281l-0-0.002-0.589-2.685c-0.006-0.024-0.009-0.051-0.009-0.080 0-0.070 0.020-0.135 0.055-0.189l-0.001 0.001c0.051-0.079 0.13-0.136 0.223-0.156l0.002-0 1.568-0.346zM1.92 6.98c0-0.352 0.287-0.64 0.64-0.64h1.030v17.011c0 0.707 0.575 1.28 1.28 1.28h22.253c0.705 0 1.28-0.573 1.28-1.28v-17.011h1.037c0.353 0 0.64 0.288 0.64 0.64v18.4c0 0.353-0.287 0.64-0.64 0.64h-10.714c-0.287 0-0.529 0.188-0.611 0.448l-0.001 0.005c-0.239 0.773-0.948 1.325-1.785 1.325-0.003 0-0.005 0-0.008-0h-0.649c-0.001 0-0.002 0-0.003 0-0.841 0-1.553-0.555-1.789-1.319l-0.004-0.013c-0.085-0.26-0.326-0.445-0.61-0.445-0 0-0 0-0 0h-10.707c-0.353 0-0.64-0.287-0.64-0.64v-18.4z"></path>
</symbol>
<symbol id="call" viewBox="0 0 32 32">
<path d="M4.656 0.629c-0.515 0.024-1.021 0.243-1.391 0.651l-2.595 2.853c0.004-0.008-0.010-0.007-0.083 0.097-0.037 0.051-0.068 0.109-0.088 0.172l-0.001 0.004c-1.057 3.362-0.348 7.063 1.376 10.583 1.724 3.52 4.475 6.888 7.633 9.652 3.158 2.765 6.721 4.926 10.12 5.999 3.397 1.073 6.691 1.058 9.131-0.714 0.028-0.020 0.053-0.041 0.076-0.064l-0 0c0.063-0.064 0.065-0.073 0.056-0.062l0.010-0.012 2.582-2.841c0.323-0.357 0.52-0.832 0.52-1.353 0-0.588-0.251-1.117-0.652-1.486l-6.129-5.572c-0.357-0.323-0.832-0.52-1.353-0.52-0.588 0-1.117 0.251-1.486 0.652l-2.772 3.049c-2.25-0.652-4.174-1.756-6.023-3.439-1.85-1.682-3.133-3.495-3.994-5.672l2.77-3.048c0.323-0.357 0.521-0.832 0.521-1.354 0-0.588-0.251-1.117-0.652-1.486l-6.127-5.572c-0.355-0.323-0.828-0.52-1.347-0.52-0.035 0-0.070 0.001-0.105 0.003l0.005-0zM4.717 1.879c0.008-0 0.018-0.001 0.028-0.001 0.198 0 0.378 0.077 0.512 0.202l-0-0 6.125 5.571c0.316 0.287 0.337 0.745 0.051 1.061l-3.064 3.366c-0.101 0.111-0.163 0.26-0.163 0.423 0 0.078 0.014 0.153 0.040 0.221l-0.001-0.004c0.93 2.536 2.43 4.618 4.493 6.495s4.275 3.174 6.888 3.858c0.049 0.013 0.104 0.021 0.162 0.021 0.184 0 0.349-0.079 0.464-0.205l0-0 3.064-3.367c0.136-0.154 0.333-0.251 0.554-0.251 0.196 0 0.374 0.077 0.506 0.202l-0-0 6.127 5.571c0.314 0.288 0.336 0.745 0.048 1.059l-2.56 2.816c-2.003 1.439-4.826 1.519-7.986 0.52-3.172-1-6.617-3.076-9.666-5.744-3.048-2.668-5.701-5.926-7.333-9.254-1.613-3.295-2.199-6.625-1.311-9.56l2.501-2.749c0.129-0.145 0.313-0.24 0.518-0.251l0.002-0z"></path>
</symbol>
<symbol id="campfire" viewBox="0 0 32 32">
<path d="M25.794 16.576c-0.273-0.616-0.649-1.224-1.2-1.925-1.388-1.76-1.812-5.685-1.816-5.722-0.026-0.239-0.226-0.423-0.47-0.423-0.141 0-0.267 0.061-0.353 0.159l-0 0c-1.656 1.868-0.96 4.753-0.584 5.906 0.104 0.315 0.216 0.687 0.296 1.064 0.612 3.045-0.569 4.424-0.847 4.701-0.268 0.075-0.452 0.038-0.621-0.146-0.584-0.645-0.776-2.758-0.504-5.511 0.056-0.56 0.042-1.064-0.038-1.534-0.576-3.384-2.686-5.554-3.224-6.315-1.478-2.202-1.628-5.868-1.633-5.901-0.004-0.177-0.107-0.329-0.256-0.403l-0.003-0.001c-0.061-0.031-0.133-0.050-0.21-0.050-0.099 0-0.191 0.031-0.267 0.084l0.002-0.001c-2.466 1.689-2.254 5.76-1.911 8.033 0.080 0.527 0.235 1.064 0.504 1.741 0.955 2.424-0.188 5.553-0.198 5.581s-0.019 0.052-0.024 0.080c-0.146 0.772-0.391 1.233-0.664 1.233-0.032-0-0.063-0.006-0.092-0.015l0.002 0.001c-0.334-0.071-0.508-0.428-0.513-0.739-0.019-4.014-4.014-5.365-4.056-5.379s-0.093-0.023-0.144-0.023c-0.142 0-0.269 0.063-0.354 0.163l-0.001 0.001c-0.072 0.082-0.116 0.189-0.116 0.308 0 0.077 0.019 0.149 0.051 0.213l-0.001-0.003c0.047 0.099 0.198 0.532 0.094 2.061-0.098 1.476-0.361 2.852-0.773 4.163l0.034-0.125c-0.951 3.125-0.8 6.085-0.791 6.226 0.731 8.014 12.162 9.419 18.946 4.904 0.744-0.494 1.351-1.059 1.798-1.68 2.504-3.482 1.031-8.212-0.066-10.725zM8.406 24.232c0 0.008 0.001 0.017 0.001 0.026 0 0.25-0.195 0.454-0.442 0.468l-0.001 0h-0.028c-0.249 0-0.456-0.193-0.471-0.442-0.042-0.687-0.033-1.407 0.019-2.188 0.019-0.259 0.245-0.452 0.504-0.438 0.259 0.019 0.456 0.245 0.438 0.504-0.052 0.744-0.061 1.421-0.019 2.071zM8.637 20.063c-0.028 0.24-0.231 0.414-0.466 0.414-0.019 0-0.038 0-0.061-0.005-0.254-0.033-0.438-0.264-0.409-0.522l0.226-1.816c0.033-0.254 0.264-0.438 0.527-0.409 0.259 0.033 0.442 0.268 0.409 0.527l-0.226 1.812zM22.61 6.909c-0.227-0.036-0.398-0.231-0.398-0.465 0-0.025 0.002-0.050 0.006-0.074l-0 0.003c0.030-0.191 0.2-1.17 0.661-1.662 0.086-0.092 0.208-0.149 0.343-0.149 0.26 0 0.471 0.211 0.471 0.471 0 0.125-0.048 0.238-0.128 0.322l0-0c-0.195 0.208-0.361 0.805-0.417 1.162-0.036 0.227-0.231 0.398-0.465 0.398-0.026 0-0.051-0.002-0.075-0.006l0.003 0zM5.455 9.253c-0.090-0.35-0.314-0.927-0.528-1.115-0.102-0.087-0.166-0.215-0.166-0.358 0-0.26 0.211-0.471 0.471-0.471 0.122 0 0.232 0.046 0.316 0.122l-0-0c0.507 0.444 0.772 1.402 0.82 1.589 0.009 0.035 0.015 0.075 0.015 0.117 0 0.26-0.211 0.471-0.471 0.471-0.218 0-0.402-0.149-0.455-0.351l-0.001-0.003z"></path>
</symbol>
<symbol id="check" viewBox="0 0 32 32">
<path d="M25.579 6.707c-0.952 0.426-1.865 0.946-2.736 1.526-1.752 1.153-3.354 2.525-4.856 3.989-1.502 1.467-2.9 3.037-4.222 4.67-0.331 0.409-1.811 2.227-1.811 2.227l-6.156-9.225-2.324 6.442 8.325 9.929c0.809-1.637 1.587-3.252 2.349-4.656 0.19-0.357 0.388-0.693 0.578-1.034 0 0 0.977-1.717 1.234-2.15 1.028-1.73 2.138-3.415 3.361-5.017 1.224-1.598 2.555-3.124 4.064-4.465 0.75-0.675 1.55-1.299 2.406-1.843 0.854-0.544 1.762-1.021 2.733-1.364-1.010 0.199-1.996 0.544-2.946 0.971z"></path>
</symbol>
<symbol id="female_student" viewBox="0 0 32 32">
<path d="M2.764 31.285h26.498c0.131-3.009-0.085-8.001-1.943-10.377l-0.067-0.085-4.060-2.030c0.088-0.296 0.131-0.567 0.149-0.767 0.004-0.040 0.006-0.087 0.006-0.135 0-0.192-0.039-0.375-0.109-0.542l0.003 0.009c-0.67-1.596-2.087-2.436-2.867-2.794 0.238-0.477 0.391-0.988 0.465-1.511 0.451-0.128 0.796-0.482 0.911-0.928l0.002-0.009 0.474-1.917c0.025-0.095 0.039-0.204 0.039-0.316 0-0.248-0.070-0.48-0.191-0.677l0.003 0.006c-0.080-0.128-0.176-0.237-0.288-0.328l-0.002-0.002c1.336-3.022-0.902-5.871-1.024-6.021-2.423-2.609-5.485-2.121-5.647-2.092-4.418 0.921-6.123 4.293-5.161 8.247-0.209 0.229-0.337 0.535-0.337 0.872 0 0.11 0.014 0.218 0.040 0.32l-0.002-0.009 0.476 1.919c0.116 0.461 0.468 0.808 0.906 0.933 0.141 0.975 0.548 1.835 1.145 2.528l-0.005-0.006v1.519c-6.34 3.233-2.323 1.17-7.404 3.73-0.010 0.048-2.384 2.56-2.031 10.007l0.021 0.455zM28.341 30.329h-4.361v-1.824l2.884-6.575c1.445 2.388 1.499 6.948 1.477 8.399zM22.389 17.945c-0.168 1.925-1.228 1.343-1.883 2.826-0.515-0.564-0.67-1.239-0.531-1.963 0.25-1.328-0.565-1.723-0.363-3.119l0.030-0.032v-0.005c0.018-0.019 0.178-0.209 0.224-0.269 1.726 0.749 2.556 2.142 2.522 2.561zM13.133 16.431c0.784 0.55 1.758 0.88 2.808 0.88h0c0.979 0 1.909-0.284 2.707-0.806 0.111 1.097 0.542 1.317 0.389 2.124-0.029 0.15-0.044 0.298-0.053 0.443l-2.97 3.333-3.797-4.262 0.917-0.477v-1.236zM11.939 12.352v-5.095c0.462-0.851 1.093-1.468 1.876-1.839 2.098 1.182 4.512 2.945 6.131 4.72-0.001 2.26 0.007 2.266-0.009 2.452l-0.001 0.012c-0.127 2.052-1.821 3.754-3.995 3.754-2.112 0-3.867-1.652-3.994-3.774-0.005-0.063-0.008-0.136-0.008-0.21 0-0.007 0-0.014 0-0.021v0.001zM11.348 18.604l4.666 5.237 3.132-3.515c0.072 0.205 0.172 0.399 0.287 0.587l-3.419 4.258-5.099-6.35 0.433-0.216zM20.9 11.584v-1.475l0.356-0.406c0.019 0.747 0.1-0.135-0.356 1.882zM15.293 1.708c0.19 0.011 2.735-0.386 4.747 1.777 0.079 0.099 1.718 2.2 1.059 4.499-0.225-1.023-0.618-2.334-1.238-2.959l-0.678 0.673c0.613 0.618 1.015 2.499 1.168 3.475-2.81-2.928-6.434-4.781-6.484-4.812-0.182 0.113-1.716 0.403-2.83 2.559l-0.053 0.103v1.583l-0.14 0.001c-0.708-3.403 0.648-6.106 4.449-6.899zM10.743 9.59l0.241 0.973v1.022l-0.4-1.615c-0.059-0.241 0.12-0.332 0.16-0.38zM10.041 19.258l5.973 7.438 4.041-5.033c0.44 0.392 0.651 0.447 1.583 0.924l-0.314-1.062c-0.080-0.269 0.236-0.702 0.427-0.901 0.429-0.234 0.781-0.56 1.039-0.952l0.007-0.011 3.297 1.649-3.068 6.994v2.024h-14.024v-2.024l-3.069-6.994 4.109-2.054zM5.162 21.932l2.885 6.573v1.824h-4.361c-0.022-1.451 0.032-6.008 1.476-8.396z"></path>
</symbol>
<symbol id="global_communication" viewBox="0 0 32 32">
<path d="M2.398 12.685v2.727c0 0.146 0.067 0.284 0.182 0.375 1.795 1.417 4.090 2.273 6.585 2.275h0c0.714 0 1.427-0.075 2.125-0.215 1.38 0.628 2.993 0.993 4.692 0.993 0.006 0 0.013 0 0.019 0h-0.001c1.644 0 3.228-0.337 4.71-0.993 2.977 0.601 6.149-0.045 8.71-2.060 0.115-0.091 0.182-0.229 0.182-0.376v-2.727c0-0.4-0.199-0.765-0.554-0.989l-3.725-2.096c0.815-1.034 1.422-2.506 1.528-3.769 0.309-2.173-1.462-4.475-4.012-4.475-1.073 0-2.092 0.441-2.84 1.182-0.026 0.026-0.055 0.047-0.080 0.074-0.023 0.024-0.042 0.053-0.064 0.077-0.015 0.016-0.028 0.034-0.043 0.051-0.728-1.329-2.129-2.15-3.78-2.15-0.16 0-0.318 0.011-0.474 0.027-0.010-0.001-0.017-0.006-0.027-0.006-0.136 0.004-0.264 0.023-0.388 0.055l0.012-0.003c-0.015 0.004-0.026 0.014-0.040 0.020-1.248 0.253-2.281 1.015-2.891 2.056l-0.011 0.020c-0.742-0.861-1.834-1.403-3.052-1.403-0.003 0-0.006 0-0.010 0h0.001c-3.765 0-5.435 4.442-2.464 8.265l-3.759 2.087c-0.322 0.207-0.533 0.564-0.533 0.969 0 0.003 0 0.005 0 0.008v-0zM20.701 16.797c-0.081 0.040-0.161 0.082-0.242 0.119l-0.002 0.001c-1.299 0.612-2.821 0.969-4.426 0.969-0.011 0-0.022-0-0.032-0h0.002c-0.007 0-0.016 0-0.024 0-2.417 0-4.645-0.806-6.431-2.165l0.026 0.019v-2.764c0-0.094 0.046-0.178 0.098-0.213l4.375-2.432c0.544 0.462 1.239 0.801 1.96 0.801 0.694 0 1.443-0.344 1.977-0.812l4.321 2.427c0.076 0.048 0.126 0.132 0.126 0.227 0 0.001 0 0.001 0 0.002v-0 2.764c-0.501 0.381-1.067 0.732-1.665 1.030l-0.062 0.028zM28.558 12.515c0.054 0.035 0.088 0.095 0.088 0.163 0 0.002-0 0.005-0 0.007v-0 2.492c-1.896 1.423-4.177 2.069-6.488 1.907 0.403-0.255 0.743-0.496 1.070-0.753l-0.027 0.021c0.115-0.091 0.183-0.229 0.183-0.376v-2.999c0-0.419-0.21-0.805-0.587-1.046l-2.296-1.29 0.558-0.309c0.677 0.552 1.259 0.716 1.78 0.716 0.638 0 1.31-0.313 1.809-0.731l3.911 2.199zM22.839 2.312c1.33 0 2.498 0.869 2.91 2.063-0.802-0.096-1.587-0.491-2.154-1.1-0.087-0.094-0.212-0.152-0.349-0.152-0.173 0-0.325 0.092-0.409 0.231l-0.001 0.002c-0.545 0.913-1.438 1.522-2.454 1.696v-0.003c0-0.024 0.001-0.052 0.001-0.080 0-0.194-0.012-0.384-0.034-0.572l0.002 0.023-0.007-0.064c-0.031-0.239-0.103-0.538-0.117-0.586 0.542-0.869 1.55-1.457 2.613-1.457zM20.277 6.026c1.244-0.138 2.318-0.768 3.040-1.688l0.007-0.010c0.739 0.607 1.676 0.973 2.603 1.017-0.007 1.727-1.417 4.746-3.088 4.746-1.288 0-2.388-1.842-2.798-3.119 0.105-0.329 0.181-0.645 0.236-0.947zM20.374 9.617l-0.854 0.473-0.862-0.484c0.317-0.396 0.604-0.843 0.843-1.317l0.020-0.044c0.249 0.523 0.533 0.974 0.862 1.387l-0.011-0.014zM19.086 6.816c-0.461 1.374-1.642 3.362-3.082 3.362-1.678 0-3.107-2.759-3.38-4.523 0.073-0.018 2.34 0.122 3.901-1.927 0.792 0.662 1.86 1.101 2.9 1.144 0.012 0.623-0.139 1.354-0.339 1.944zM16.032 1.544c2.678 0 3.187 2.304 3.229 2.352-0.971-0.098-1.856-0.574-2.468-1.228-0.087-0.093-0.211-0.152-0.349-0.152-0.174 0-0.327 0.093-0.41 0.233l-0.001 0.002c-0.53 0.897-1.362 1.53-2.325 1.799-0.33 0.094-0.708 0.148-1.099 0.148-0.009 0-0.017-0-0.026-0h0.001c0.131-1.755 1.537-3.154 3.448-3.154zM12.48 8.235c0.262 0.528 0.555 0.982 0.89 1.4l-0.012-0.015-0.843 0.469-0.874-0.491c0.309-0.396 0.588-0.843 0.818-1.319l0.019-0.044zM9.152 2.312c1.083 0 2.076 0.549 2.629 1.458-0.028 0.096-0.103 0.48-0.112 0.527-0.697-0.172-1.293-0.531-1.752-1.022l-0.002-0.002c-0.087-0.093-0.211-0.151-0.349-0.151-0.174 0-0.326 0.093-0.41 0.232l-0.001 0.002c-0.633 1.050-1.765 1.743-3.059 1.748h-0.001c0.152-1.567 1.462-2.793 3.057-2.793zM6.137 6.058c1.421-0.018 2.681-0.686 3.501-1.72l0.007-0.009c0.549 0.451 1.218 0.776 1.951 0.921l0.028 0.005c0.029 0.554 0.172 1.226 0.338 1.723-0.264 0.809-0.77 1.773-1.397 2.413-0.004 0.004-0.010 0.006-0.013 0.010-0.393 0.414-0.951 0.693-1.391 0.693-1.536 0-2.737-2.416-3.024-4.034zM3.353 12.685c0-0.073 0.032-0.134 0.064-0.156l3.964-2.2c0.238 0.198 0.293 0.221 0.341 0.256v0c0.467 0.31 0.894 0.465 1.478 0.465 0.621 0 1.187-0.263 1.685-0.669 0.028-0.022 0.058-0.043 0.085-0.065l0.566 0.318-2.356 1.311c-0.341 0.221-0.563 0.599-0.563 1.029 0 0.001 0 0.002 0 0.002v-0 2.999c0 0.147 0.067 0.285 0.183 0.375 0.3 0.236 0.64 0.478 0.992 0.702l0.052 0.031c-2.345 0.16-4.626-0.509-6.49-1.907v-2.492z"></path>
<path d="M30.585 20.605c-0.301-0.193-0.668-0.308-1.062-0.308-0.317 0-0.617 0.074-0.883 0.207l0.012-0.005-5.894 2.848c-0.021-1.106-0.921-1.994-2.030-1.995l-3.38 0.001c-1.666-1.449-3.796-2.336-5.733-2.382-1.257-0.032-2.807-0.054-4.361-0.062l-0.062-0v-0.965h-6.715v11.093h6.715v-1.328c1.841 1.056 6.683 3.703 8.981 3.703 0.053 0 0.103-0.001 0.152-0.005 4.041-0.226 13.572-6.933 14.2-7.378 0.599-0.353 0.995-0.995 0.996-1.729v-0c0-0.693-0.35-1.326-0.937-1.694zM6.238 28.081h-4.805v-9.183h4.805v9.183zM30.035 23.209c-0.017 0.009-0.031 0.018-0.044 0.027l0.001-0.001c-0.098 0.070-9.901 7.003-13.719 7.218-0.035 0.002-0.075 0.003-0.116 0.003-0 0-0 0-0 0v0c-2.016 0-6.929-2.651-8.964-3.854v-6.739c0.796 0.003 2.501 0.016 4.4 0.062 1.77 0.043 3.733 0.887 5.255 2.259l0.137 0.123 3.744-0.001c0.595 0.001 1.077 0.483 1.078 1.077v0c-0.001 0.595-0.483 1.077-1.077 1.078h-6.879v0.955h6.879c0.659 0 1.24-0.32 1.612-0.809l6.727-3.25c0.133-0.068 0.29-0.108 0.457-0.108 0.206 0 0.397 0.061 0.558 0.165l-0.004-0.002c0.295 0.183 0.489 0.506 0.489 0.873 0 0.004-0 0.008-0 0.012v-0.001c-0 0.389-0.212 0.727-0.527 0.908l-0.005 0.003zM15.522 12.3h0.955v0.886h-0.955zM15.522 14.066h0.955v0.886h-0.955zM15.522 15.832h0.955v0.886h-0.955z"></path>
</symbol>
<symbol id="mobile_learning" viewBox="0 0 32 32">
<path d="M29.014 0.835h-14.806c-0.965 0.001-1.747 0.783-1.748 1.748v6.129l-10.999 4.617c-0.131 0.055-0.22 0.182-0.22 0.33 0 0.13 0.069 0.244 0.173 0.306l0.002 0.001 1.403 0.84v8.947c-0.724 0.17-1.255 0.81-1.256 1.574v0.863c0 0.198 0.16 0.358 0.358 0.358h2.512c0.198 0 0.358-0.16 0.358-0.358v0-0.863c-0.002-0.764-0.533-1.403-1.245-1.571l-0.011-0.002v-8.519l1.109 0.664c-0.034 0.256-0.004-0.446-0.016 4.165 0 1.516 3.883 2.328 7.833 2.375v6.982c0 0.361 0.11 0.696 0.299 0.974 0.318 0.467 0.847 0.77 1.447 0.771h14.806c0.964-0.001 1.746-0.782 1.747-1.746v-0c0 0.048-0.002-1.479 0-26.836 0-0.95-0.786-1.748-1.745-1.748zM4.074 25.326v0.504h-1.796v-0.504c0-0.496 0.402-0.9 0.896-0.9 0.497 0 0.9 0.404 0.9 0.9zM29.014 30.447h-14.806c-0.355 0-0.669-0.18-0.855-0.453-0.11-0.161-0.176-0.36-0.176-0.574 0-0 0-0.001 0-0.001v0-2.421h16.864v2.421c-0.005 0.565-0.462 1.022-1.026 1.027h-0zM30.041 26.282h-16.864v-3.842c1.929-0.022 7.838-0.447 7.838-2.376-0.002-2.897 0.005-4.071-0.010-4.171l3.217-1.927c0.105-0.064 0.174-0.177 0.174-0.307 0-0.148-0.090-0.275-0.218-0.33l-0.002-0.001-10.999-4.617v-2.992h16.864v20.562zM12.818 17.685c-1.987 0-5.813 0.257-7.475 1.342 0.011-3.319-0.115-3.104 0.294-3.385 1.033-0.76 3.985-1.291 7.181-1.291 1.394 0 7.479 0.383 7.479 1.672v3.004c-1.678-1.095-5.484-1.342-7.479-1.342zM13.177 2.583c0-0.568 0.462-1.030 1.030-1.030h14.806c0.568 0 1.028 0.468 1.028 1.030v2.421h-16.864v-2.421zM12.818 9.338l10.428 4.377-2.584 1.546c-1.374-1.362-5.918-1.626-7.844-1.626-1.929 0-6.473 0.265-7.844 1.627l-2.585-1.546 10.429-4.377zM5.344 20.064c0-0.58 2.567-1.662 7.475-1.662 4.91 0 7.479 1.082 7.479 1.662s-2.569 1.662-7.479 1.662c-4.907 0-7.475-1.082-7.475-1.662z"></path>
<path d="M21.61 27.539c-0.653 0-1.184 0.531-1.184 1.184s0.531 1.185 1.184 1.185c0.653 0 1.184-0.532 1.184-1.185s-0.531-1.184-1.184-1.184zM21.61 29.192c-0.004 0-0.009 0-0.014 0-0.259 0-0.469-0.21-0.469-0.469s0.21-0.469 0.469-0.469c0.005 0 0.011 0 0.016 0l-0.001-0c0.252 0.009 0.453 0.215 0.453 0.468s-0.202 0.46-0.453 0.468l-0.001 0zM20.244 2.92h2.733v0.716h-2.733z"></path>
</symbol>
<symbol id="noun_insurance" viewBox="0 0 27 32">
<path d="M0.54 13.692c0 0.356-0.54 0.356-0.54 0 0-7.56 6.132-13.692 13.692-13.692 7.564 0 13.692 6.132 13.692 13.692 0 0.356-0.537 0.356-0.537 0 0-5.11-8.398-5.114-8.398 0 0 0.356-0.553 0.356-0.553 0 0-5.097-8.411-5.097-8.411 0 0 0.356-0.553 0.356-0.553 0 0-5.088-8.394-5.123-8.394 0zM8.983 11.707c0.145-2.941 0.608-5.579 1.28-7.593 0.537-1.6 1.215-2.815 1.985-3.497-5.773 0.63-10.447 5.007-11.491 10.683 1.988-2.867 6.578-2.638 8.226 0.407zM17.855 11.575c-0.149-2.828-0.598-5.359-1.244-7.289-1.668-4.994-4.17-4.994-5.838 0-0.646 1.93-1.093 4.461-1.244 7.289 1.794-3.048 6.533-3.048 8.326 0zM26.628 11.3c-1.041-5.676-5.715-10.053-11.491-10.683 0.773 0.682 1.448 1.897 1.985 3.497 0.672 2.014 1.135 4.651 1.28 7.593 1.658-3.061 6.261-3.242 8.226-0.407zM11.895 19.956v-2.78c-0.501 0.333-0.895 0.847-0.895 1.474 0 0.611 0.401 1.015 0.895 1.306zM12.435 20.819c-0.96-0.44-1.972-0.954-1.972-2.169 0-1.254 0.954-1.881 1.972-2.35v4.519zM15.489 24.152v2.812c0.507-0.336 0.905-0.853 0.905-1.48 0-0.617-0.407-1.034-0.905-1.332zM14.953 23.286c0.963 0.446 1.981 0.976 1.981 2.198 0 1.257-0.96 1.884-1.981 2.35v-4.548z"></path>
<path d="M15.489 14.012c2.211 0.511 4.483 2.166 4.483 4.638 0 2.117-3.578 2.040-3.578 0 0-0.63-0.398-1.147-0.905-1.48v3.956c2.046 0.669 4.49 1.868 4.49 4.357 0 2.476-2.272 4.128-4.49 4.635-0.010 2.356-3.588 2.353-3.594-0.003-1.261-0.291-2.356-0.879-3.148-1.658-0.831-0.821-1.322-1.852-1.322-2.974 0-2.085 3.575-2.085 3.575 0 0 0.624 0.394 1.138 0.895 1.471v-3.953c-2.030-0.656-4.486-1.891-4.486-4.357 0-2.476 2.272-4.128 4.486-4.635 0.010-2.356 3.588-2.353 3.594 0.003zM12.435 14.019v0.43c-2.104 0.417-4.49 1.765-4.49 4.196 0 2.337 2.618 3.384 4.49 3.963v5.223c-1.012-0.462-1.972-1.086-1.972-2.347 0-1.377-2.502-1.377-2.502 0 0 0.973 0.433 1.872 1.164 2.589 0.928 0.918 2.053 1.354 3.31 1.603v0.433c0 1.658 2.518 1.658 2.518 0v-0.43c2.111-0.42 4.486-1.768 4.486-4.196 0-2.36-2.612-3.375-4.486-3.966v-5.22c1.015 0.462 1.981 1.086 1.981 2.353 0 1.341 2.499 1.396 2.499 0 0-2.427-2.373-3.779-4.48-4.199v-0.433c0-1.658-2.518-1.658-2.518 0z"></path>
</symbol>
<symbol id="open_book" viewBox="0 0 32 32">
<path d="M4.649 8.009h9.568v0.716h-9.568zM6.081 10.68h8.135v0.716h-8.135zM4.649 13.351h9.568v0.716h-9.568zM6.081 16.022h8.135v0.716h-8.135zM4.649 18.693h9.568v0.716h-9.568zM6.081 21.365h8.135v0.716h-8.135zM17.783 8.009h9.568v0.716h-9.568zM17.783 10.68h8.135v0.716h-8.135zM17.783 13.351h9.568v0.716h-9.568zM17.783 16.022h8.135v0.716h-8.135zM17.783 18.693h9.568v0.716h-9.568zM17.783 21.365h8.135v0.716h-8.135z"></path>
<path d="M30.806 7.193h-1.313v-1.973c0-0.198-0.16-0.358-0.358-0.358v0h-10.708c-0.004-0-0.008-0-0.013-0-1.030 0-1.929 0.562-2.406 1.397l-0.007 0.014c-0.485-0.848-1.384-1.41-2.414-1.41-0.004 0-0.009 0-0.013 0h-10.707c-0.198 0-0.358 0.16-0.358 0.358v0 1.973h-1.313c-0.198 0-0.358 0.16-0.358 0.358v0 19.229c0 0.198 0.16 0.358 0.358 0.358h29.612c0.198 0 0.358-0.16 0.358-0.358v0-19.229c0-0.198-0.16-0.358-0.358-0.358v0zM18.426 5.579h10.35v19.186h-11.114c-0.493 0-0.985 0.208-1.304 0.478v-17.6c0-0.002 0-0.004 0-0.007 0-1.136 0.921-2.057 2.057-2.057 0.004 0 0.008 0 0.012 0h-0.001zM3.224 5.579h10.35c0.004-0 0.009-0 0.014-0 1.109 0 2.013 0.881 2.050 1.981l0 0.003c0.001 0.015 0.002 0.064 0.005 0.079v17.598c-0.318-0.268-0.805-0.476-1.299-0.476h-11.119v-19.186zM1.552 7.909h0.955v17.213c0 0.198 0.16 0.358 0.358 0.358h11.477c0.587 0.003 1.082 0.395 1.24 0.932l0.002 0.009h-14.033v-18.512zM30.448 26.422h-14.033c0.159-0.547 0.656-0.941 1.245-0.941 0.001 0 0.001 0 0.002 0h11.472c0.198 0 0.358-0.16 0.358-0.358v0-17.213h0.955v18.512z"></path>
</symbol>
<symbol id="study_program" viewBox="0 0 32 32">
<path d="M29.659 5.844l-0.001-0.002c-0.007-0.016-0.014-0.030-0.023-0.043l0.001 0.001-0.002-0.003c-0.010-0.015-0.020-0.027-0.031-0.039l0 0-4.421-4.421c-0.011-0.011-0.023-0.021-0.037-0.030l-0.001-0.001-0.008-0.005c-0.009-0.006-0.020-0.012-0.032-0.017l-0.002-0.001c-0.004-0.002-0.007-0.003-0.010-0.004-0.027-0.011-0.058-0.018-0.090-0.019h-0l-0.005-0h-19.478c-0.144 0-0.261 0.117-0.261 0.261 0 0 0 0 0 0v-0 26.966c0 0 0 0 0 0.001 0 0.018 0.002 0.035 0.005 0.052l-0-0.002c0.002 0.007 0.004 0.014 0.006 0.021 0.003 0.009 0.005 0.019 0.009 0.028s0.008 0.016 0.012 0.024c0.004 0.007 0.007 0.014 0.012 0.021 0.009 0.013 0.019 0.026 0.030 0.037 0.001 0.001 0.001 0.002 0.003 0.003l1.991 1.991c0.047 0.047 0.113 0.076 0.185 0.076s0.138-0.029 0.185-0.076l1.807-1.806 1.807 1.806c0.047 0.048 0.113 0.077 0.185 0.077s0.138-0.029 0.185-0.077l1.806-1.806 1.807 1.806c0.047 0.047 0.113 0.076 0.185 0.076s0.137-0.029 0.185-0.076l1.806-1.806 1.806 1.806c0.047 0.047 0.113 0.077 0.185 0.077s0.137-0.029 0.185-0.077v0l1.808-1.806 1.806 1.806c0.047 0.047 0.113 0.077 0.185 0.077s0.138-0.029 0.185-0.077v0l1.806-1.806 1.808 1.806c0.047 0.047 0.113 0.077 0.185 0.077s0.137-0.029 0.185-0.077v0l1.991-1.991c0.004-0.004 0.007-0.008 0.010-0.012 0.007-0.009 0.015-0.017 0.022-0.027s0.010-0.019 0.015-0.028c0.003-0.006 0.007-0.011 0.009-0.017 0.005-0.012 0.008-0.024 0.011-0.036 0.001-0.004 0.003-0.008 0.004-0.012 0.003-0.016 0.005-0.035 0.005-0.053v-22.542c-0.001-0.036-0.009-0.070-0.022-0.102l0.001 0.002zM25.257 2.153l3.529 3.529h-3.529v-3.529zM29.156 28.379l-1.73 1.73-1.808-1.806c-0.047-0.047-0.113-0.076-0.185-0.076s-0.137 0.029-0.185 0.076v0l-1.806 1.806-1.806-1.806c-0.047-0.047-0.113-0.076-0.185-0.076s-0.137 0.029-0.185 0.076v0l-1.808 1.806-1.806-1.806c-0.047-0.047-0.113-0.077-0.185-0.077s-0.138 0.029-0.185 0.077v0l-1.806 1.806-1.807-1.806c-0.047-0.047-0.113-0.076-0.185-0.076s-0.137 0.029-0.185 0.076v0l-1.806 1.806-1.807-1.806c-0.047-0.047-0.113-0.076-0.185-0.076s-0.137 0.029-0.185 0.076v0l-1.807 1.806-1.73-1.73v-26.596h18.955v4.16c0 0.144 0.117 0.261 0.261 0.261h4.159l0 22.175z"></path>
<path d="M7.729 4.255h8.559c0.144 0 0.261-0.117 0.261-0.261s-0.117-0.261-0.261-0.261h-8.559c-0.144 0-0.261 0.117-0.261 0.261s0.117 0.261 0.261 0.261v0zM7.729 5.872h13.725c0.144 0 0.261-0.117 0.261-0.261s-0.117-0.261-0.261-0.261h-13.725c-0.144 0-0.261 0.117-0.261 0.261s0.117 0.261 0.261 0.261v0zM7.467 7.323v8.463c0 0.144 0.117 0.261 0.261 0.261h19.478c0.144 0 0.261-0.117 0.261-0.261 0-0 0-0 0-0v0-8.463c0-0 0-0 0-0 0-0.144-0.117-0.261-0.261-0.261 0 0 0 0 0 0h-19.478c-0.144 0-0.261 0.117-0.261 0.261v0zM13.244 7.584h13.702v2.249h-13.702v-2.249zM13.244 10.356h13.702v2.248h-13.702v-2.248zM13.244 13.127h13.702v2.397h-13.702v-2.397zM7.99 7.584h4.731v2.249h-4.731v-2.249zM7.99 10.356h4.731v2.248h-4.731v-2.248zM7.99 13.127h4.731v2.397h-4.731v-2.397zM27.207 17.223h-19.478c-0.144 0-0.261 0.117-0.261 0.261v0 8.462c0 0.144 0.117 0.261 0.261 0.261s0.261-0.117 0.261-0.261v0-2.658h4.731v2.658c0 0.144 0.117 0.261 0.261 0.261s0.261-0.117 0.261-0.261v0-2.658h13.702v2.658c0 0.144 0.117 0.261 0.261 0.261s0.261-0.117 0.261-0.261v0-8.462c0-0 0-0.001 0-0.001 0-0.144-0.116-0.26-0.26-0.26-0 0-0 0-0 0h0zM12.721 22.766h-4.731v-2.248h4.731v2.248zM12.721 19.995h-4.731v-2.249h4.731v2.249zM26.945 22.766h-13.702v-2.248h13.702v2.248zM26.945 19.995h-13.702v-2.249h13.702v2.249zM4.018 1.26c-0.144 0-0.261 0.117-0.261 0.261v0 26.966c0 0.144 0.117 0.261 0.261 0.261s0.261-0.117 0.261-0.261v0-26.966c0-0.144-0.117-0.261-0.261-0.261v0zM2.581 1.26c-0.144 0-0.261 0.117-0.261 0.261v0 26.966c0.005 0.14 0.12 0.252 0.261 0.252s0.256-0.112 0.261-0.252v-26.966c0-0 0-0 0-0 0-0.144-0.117-0.261-0.261-0.261 0 0 0 0 0 0v0z"></path>
</symbol>
<symbol id="icon-circle-up" viewBox="0 0 32 32">
<title>circle-up</title>
<path d="M0 16c0 8.837 7.163 16 16 16s16-7.163 16-16-7.163-16-16-16-16 7.163-16 16zM29 16c0 7.18-5.82 13-13 13s-13-5.82-13-13 5.82-13 13-13 13 5.82 13 13z"></path>
<path d="M22.086 20.914l2.829-2.829-8.914-8.914-8.914 8.914 2.828 2.828 6.086-6.086z"></path>
</symbol>
</defs>
</svg>
