<svg aria-hidden="true" style="position:absolute;width:0;height:0" xmlns="http://www.w3.org/2000/svg" overflow="hidden"><defs><symbol id="audio_book" viewBox="0 0 32 32"><path d="M2.56 27.3h10.273a3.145 3.145 0 002.828 1.777h.672a3.137 3.137 0 002.819-1.759l.008-.018h10.279c1.059 0 1.92-.861 1.92-1.92V6.98c0-1.059-.861-1.92-1.92-1.92h-1.037v-.858c0-.705-.575-1.28-1.28-1.28H4.869c-.705 0-1.28.575-1.28 1.28v.858h-1.03c-1.059 0-1.92.861-1.92 1.92v18.4c0 1.059.861 1.92 1.92 1.92zm24.562-3.949H16.64V8.48a4.948 4.948 0 014.301 4.897v.577l-.152-.033a.64.64 0 00-.761.483l-.001.004-1.019 4.635a.64.64 0 00.483.761l.004.001 2.202.485a1.633 1.633 0 001.948-1.254l.589-2.682a1.642 1.642 0 00-1.235-1.95l-.011-.002-.766-.168v-.86a6.234 6.234 0 00-5.581-6.191V4.201h10.483l-.001 19.149zm-5.983-8.042l1.572.346c.196.044.316.23.273.427l-.589 2.681a.38.38 0 01-.429.278h.002l-1.574-.347.744-3.385zM4.87 4.203h10.49v2.982a6.232 6.232 0 00-5.587 6.191v.859l-.768.17a1.638 1.638 0 00-1.023.71l-.004.006a1.602 1.602 0 00-.216 1.244l-.002-.011.588 2.678a1.647 1.647 0 001.964 1.254l-.011.002 2.192-.484a.642.642 0 00.486-.766l.001.004-1.019-4.637a.64.64 0 00-.767-.486l.004-.001-.146.032v-.576a4.95 4.95 0 014.307-4.899v14.874H4.869V4.2zm5.979 11.106l.745 3.385-1.565.346a.362.362 0 01-.43-.273v-.002L9.01 16.08a.346.346 0 01.046-.269l-.001.001a.354.354 0 01.223-.156h.002l1.568-.346zM1.92 6.98c0-.352.287-.64.64-.64h1.03v17.011c0 .707.575 1.28 1.28 1.28h22.253c.705 0 1.28-.573 1.28-1.28V6.34h1.037c.353 0 .64.288.64.64v18.4a.64.64 0 01-.64.64H18.726a.64.64 0 00-.611.448l-.001.005a1.869 1.869 0 01-1.785 1.325h-.66a1.873 1.873 0 01-1.789-1.319l-.004-.013a.642.642 0 00-.61-.445H2.559a.64.64 0 01-.64-.64v-18.4z"/></symbol><symbol id="call" viewBox="0 0 32 32"><path d="M4.656.629a1.997 1.997 0 00-1.391.651L.67 4.133c.004-.008-.01-.007-.083.097a.608.608 0 00-.088.172l-.001.004C-.559 7.768.15 11.469 1.874 14.989c1.724 3.52 4.475 6.888 7.633 9.652 3.158 2.765 6.721 4.926 10.12 5.999 3.397 1.073 6.691 1.058 9.131-.714a.598.598 0 00.076-.064c.063-.064.065-.073.056-.062l.01-.012 2.582-2.841a2.01 2.01 0 00.52-1.353c0-.588-.251-1.117-.652-1.486l-6.129-5.572a2.01 2.01 0 00-1.353-.52c-.588 0-1.117.251-1.486.652l-2.772 3.049c-2.25-.652-4.174-1.756-6.023-3.439-1.85-1.682-3.133-3.495-3.994-5.672l2.77-3.048c.323-.357.521-.832.521-1.354 0-.588-.251-1.117-.652-1.486L6.105 1.146A1.995 1.995 0 004.653.629h.005zm.061 1.25l.028-.001c.198 0 .378.077.512.202l6.125 5.571a.737.737 0 01.051 1.061l-3.064 3.366a.627.627 0 00-.123.644l-.001-.004c.93 2.536 2.43 4.618 4.493 6.495s4.275 3.174 6.888 3.858a.635.635 0 00.626-.184l3.064-3.367a.736.736 0 011.06-.049l6.127 5.571a.735.735 0 01.048 1.059l-2.56 2.816c-2.003 1.439-4.826 1.519-7.986.52-3.172-1-6.617-3.076-9.666-5.744-3.048-2.668-5.701-5.926-7.333-9.254-1.613-3.295-2.199-6.625-1.311-9.56L4.196 2.13a.747.747 0 01.518-.251h.002z"/></symbol><symbol id="campfire" viewBox="0 0 32 32"><path d="M25.794 16.576c-.273-.616-.649-1.224-1.2-1.925-1.388-1.76-1.812-5.685-1.816-5.722a.473.473 0 00-.823-.264c-1.656 1.868-.96 4.753-.584 5.906.104.315.216.687.296 1.064.612 3.045-.569 4.424-.847 4.701-.268.075-.452.038-.621-.146-.584-.645-.776-2.758-.504-5.511a5.696 5.696 0 00-.038-1.534c-.576-3.384-2.686-5.554-3.224-6.315C14.955 4.628 14.805.962 14.8.929a.461.461 0 00-.256-.403l-.003-.001a.465.465 0 00-.477.034l.002-.001c-2.466 1.689-2.254 5.76-1.911 8.033.08.527.235 1.064.504 1.741.955 2.424-.188 5.553-.198 5.581s-.019.052-.024.08c-.146.772-.391 1.233-.664 1.233a.311.311 0 01-.092-.015l.002.001c-.334-.071-.508-.428-.513-.739-.019-4.014-4.014-5.365-4.056-5.379a.467.467 0 00-.498.14l-.001.001a.464.464 0 00-.065.521l-.001-.003c.047.099.198.532.094 2.061a17.694 17.694 0 01-.773 4.163l.034-.125c-.951 3.125-.8 6.085-.791 6.226.731 8.014 12.162 9.419 18.946 4.904.744-.494 1.351-1.059 1.798-1.68 2.504-3.482 1.031-8.212-.066-10.725zM8.406 24.232l.001.026c0 .25-.195.454-.442.468h-.029a.471.471 0 01-.471-.442 17.126 17.126 0 01.019-2.188.477.477 0 01.504-.438.474.474 0 01.438.504 15.352 15.352 0 00-.019 2.071zm.231-4.169a.468.468 0 01-.466.414c-.019 0-.038 0-.061-.005a.473.473 0 01-.409-.522l.226-1.816a.471.471 0 11.936.118l-.226 1.812zM22.61 6.909a.471.471 0 01-.392-.539v.003c.03-.191.2-1.17.661-1.662a.471.471 0 01.686.644c-.195.208-.361.805-.417 1.162a.471.471 0 01-.54.392h.003zM5.455 9.253c-.09-.35-.314-.927-.528-1.115a.469.469 0 01.305-.829c.122 0 .232.046.316.122.507.444.772 1.402.82 1.589a.471.471 0 01-.911.237l-.001-.003z"/></symbol><symbol id="check" viewBox="0 0 32 32"><path d="M25.579 6.707a18.84 18.84 0 00-2.736 1.526c-1.752 1.153-3.354 2.525-4.856 3.989a54.004 54.004 0 00-4.222 4.67c-.331.409-1.811 2.227-1.811 2.227L5.798 9.894l-2.324 6.442 8.325 9.929c.809-1.637 1.587-3.252 2.349-4.656.19-.357.388-.693.578-1.034 0 0 .977-1.717 1.234-2.15a52.158 52.158 0 013.361-5.017c1.224-1.598 2.555-3.124 4.064-4.465.75-.675 1.55-1.299 2.406-1.843.854-.544 1.762-1.021 2.733-1.364-1.01.199-1.996.544-2.946.971z"/></symbol><symbol id="female_student" viewBox="0 0 32 32"><path d="M2.764 31.285h26.498c.131-3.009-.085-8.001-1.943-10.377l-.067-.085-4.06-2.03c.088-.296.131-.567.149-.767a1.399 1.399 0 00-.103-.677l.003.009c-.67-1.596-2.087-2.436-2.867-2.794.238-.477.391-.988.465-1.511.451-.128.796-.482.911-.928l.002-.009.474-1.917a1.29 1.29 0 00-.152-.993l.003.006a1.32 1.32 0 00-.288-.328l-.002-.002c1.336-3.022-.902-5.871-1.024-6.021C18.34.252 15.278.74 15.116.769c-4.418.921-6.123 4.293-5.161 8.247a1.289 1.289 0 00-.297 1.192l-.002-.009.476 1.919a1.3 1.3 0 00.906.933 4.926 4.926 0 001.145 2.528l-.005-.006v1.519c-6.34 3.233-2.323 1.17-7.404 3.73-.01.048-2.384 2.56-2.031 10.007l.021.455zm25.577-.956H23.98v-1.824l2.884-6.575c1.445 2.388 1.499 6.948 1.477 8.399zm-5.952-12.384c-.168 1.925-1.228 1.343-1.883 2.826-.515-.564-.67-1.239-.531-1.963.25-1.328-.565-1.723-.363-3.119l.03-.032v-.005c.018-.019.178-.209.224-.269 1.726.749 2.556 2.142 2.522 2.561zm-9.256-1.514c.784.55 1.758.88 2.808.88.979 0 1.909-.284 2.707-.806.111 1.097.542 1.317.389 2.124-.029.15-.044.298-.053.443l-2.97 3.333-3.797-4.262.917-.477V16.43zm-1.194-4.079V7.257c.462-.851 1.093-1.468 1.876-1.839 2.098 1.182 4.512 2.945 6.131 4.72-.001 2.26.007 2.266-.009 2.452l-.001.012a4 4 0 01-7.989-.02 2.716 2.716 0 01-.008-.21v-.021.001zm-.591 6.252l4.666 5.237 3.132-3.515c.072.205.172.399.287.587l-3.419 4.258-5.099-6.35.433-.216zm9.552-7.02v-1.475l.356-.406c.019.747.1-.135-.356 1.882zm-5.607-9.876c.19.011 2.735-.386 4.747 1.777.079.099 1.718 2.2 1.059 4.499-.225-1.023-.618-2.334-1.238-2.959l-.678.673c.613.618 1.015 2.499 1.168 3.475-2.81-2.928-6.434-4.781-6.484-4.812-.182.113-1.716.403-2.83 2.559l-.053.103v1.583l-.14.001c-.708-3.403.648-6.106 4.449-6.899zm-4.55 7.882l.241.973v1.022l-.4-1.615c-.059-.241.12-.332.16-.38zm-.702 9.668l5.973 7.438 4.041-5.033c.44.392.651.447 1.583.924l-.314-1.062c-.08-.269.236-.702.427-.901.429-.234.781-.56 1.039-.952l.007-.011 3.297 1.649-3.068 6.994v2.024H9.002v-2.024L5.933 21.31l4.109-2.054zm-4.879 2.674l2.885 6.573v1.824H3.686c-.022-1.451.032-6.008 1.476-8.396z"/></symbol><symbol id="global_communication" viewBox="0 0 32 32"><path d="M2.398 12.685v2.727c0 .146.067.284.182.375a10.62 10.62 0 006.585 2.275c.714 0 1.427-.075 2.125-.215 1.38.628 2.993.993 4.692.993h.019H16c1.644 0 3.228-.337 4.71-.993 2.977.601 6.149-.045 8.71-2.06a.479.479 0 00.182-.376v-2.727c0-.4-.199-.765-.554-.989l-3.725-2.096c.815-1.034 1.422-2.506 1.528-3.769.309-2.173-1.462-4.475-4.012-4.475a4.05 4.05 0 00-2.84 1.182c-.026.026-.055.047-.08.074-.023.024-.042.053-.064.077-.015.016-.028.034-.043.051-.728-1.329-2.129-2.15-3.78-2.15-.16 0-.318.011-.474.027-.01-.001-.017-.006-.027-.006a1.746 1.746 0 00-.388.055l.012-.003c-.015.004-.026.014-.04.02a4.335 4.335 0 00-2.891 2.056l-.011.02a4.016 4.016 0 00-3.052-1.403h-.01.001c-3.765 0-5.435 4.442-2.464 8.265l-3.759 2.087a1.15 1.15 0 00-.533.969v.008zm18.303 4.112c-.081.04-.161.082-.242.119l-.002.001a10.433 10.433 0 01-4.426.969h-.032.002-.024c-2.417 0-4.645-.806-6.431-2.165l.026.019v-2.764c0-.094.046-.178.098-.213l4.375-2.432c.544.462 1.239.801 1.96.801.694 0 1.443-.344 1.977-.812l4.321 2.427a.268.268 0 01.126.227v2.766c-.501.381-1.067.732-1.665 1.03l-.062.028zm7.857-4.282a.193.193 0 01.088.163v2.499a9.615 9.615 0 01-6.488 1.907 12.57 12.57 0 001.07-.753l-.027.021a.48.48 0 00.183-.376v-2.999c0-.419-.21-.805-.587-1.046l-2.296-1.29.558-.309c.677.552 1.259.716 1.78.716.638 0 1.31-.313 1.809-.731l3.911 2.199zM22.839 2.312a3.1 3.1 0 012.91 2.063 3.564 3.564 0 01-2.154-1.1.475.475 0 00-.758.079l-.001.002a3.551 3.551 0 01-2.454 1.696v-.003l.001-.08c0-.194-.012-.384-.034-.572l.002.023-.007-.064a5.419 5.419 0 00-.117-.586 3.136 3.136 0 012.613-1.457zm-2.562 3.714a4.476 4.476 0 003.04-1.688l.007-.01a4.502 4.502 0 002.603 1.017c-.007 1.727-1.417 4.746-3.088 4.746-1.288 0-2.388-1.842-2.798-3.119.105-.329.181-.645.236-.947zm.097 3.591l-.854.473-.862-.484c.317-.396.604-.843.843-1.317l.02-.044c.249.523.533.974.862 1.387l-.011-.014zm-1.288-2.801c-.461 1.374-1.642 3.362-3.082 3.362-1.678 0-3.107-2.759-3.38-4.523.073-.018 2.34.122 3.901-1.927.792.662 1.86 1.101 2.9 1.144.012.623-.139 1.354-.339 1.944zm-3.054-5.272c2.678 0 3.187 2.304 3.229 2.352a3.973 3.973 0 01-2.468-1.228.477.477 0 00-.759.081l-.001.002a3.925 3.925 0 01-3.424 1.947h-.026.001c.131-1.755 1.537-3.154 3.448-3.154zM12.48 8.235c.262.528.555.982.89 1.4l-.012-.015-.843.469-.874-.491c.309-.396.588-.843.818-1.319l.019-.044zM9.152 2.312a3.06 3.06 0 012.629 1.458c-.028.096-.103.48-.112.527a3.54 3.54 0 01-1.752-1.022l-.002-.002a.476.476 0 00-.759.081l-.001.002a3.58 3.58 0 01-3.059 1.748h-.001c.152-1.567 1.462-2.793 3.057-2.793zM6.137 6.058a4.529 4.529 0 003.501-1.72l.007-.009a4.433 4.433 0 001.951.921l.028.005c.029.554.172 1.226.338 1.723-.264.809-.77 1.773-1.397 2.413-.004.004-.01.006-.013.01-.393.414-.951.693-1.391.693-1.536 0-2.737-2.416-3.024-4.034zm-2.784 6.627c0-.073.032-.134.064-.156l3.964-2.2c.238.198.293.221.341.256.467.31.894.465 1.478.465.621 0 1.187-.263 1.685-.669.028-.022.058-.043.085-.065l.566.318-2.356 1.311a1.223 1.223 0 00-.563 1.029v3.001c0 .147.067.285.183.375.3.236.64.478.992.702l.052.031a9.66 9.66 0 01-6.49-1.907v-2.492z"/><path d="M30.585 20.605a1.968 1.968 0 00-1.062-.308c-.317 0-.617.074-.883.207l.012-.005-5.894 2.848a2.032 2.032 0 00-2.03-1.995l-3.38.001c-1.666-1.449-3.796-2.336-5.733-2.382a224.113 224.113 0 00-4.361-.062h-.062v-.965H.477v11.093h6.715v-1.328c1.841 1.056 6.683 3.703 8.981 3.703.053 0 .103-.001.152-.005 4.041-.226 13.572-6.933 14.2-7.378.599-.353.995-.995.996-1.729 0-.693-.35-1.326-.937-1.694zM6.238 28.081H1.433v-9.183h4.805v9.183zm23.797-4.872a.424.424 0 00-.044.027l.001-.001c-.098.07-9.901 7.003-13.719 7.218a2.08 2.08 0 01-.116.003c-2.016 0-6.929-2.651-8.964-3.854v-6.739c.796.003 2.501.016 4.4.062 1.77.043 3.733.887 5.255 2.259l.137.123 3.744-.001a1.08 1.08 0 011.078 1.077 1.08 1.08 0 01-1.077 1.078h-6.879v.955h6.879c.659 0 1.24-.32 1.612-.809l6.727-3.25a1.024 1.024 0 011.015.057l-.004-.002c.295.183.489.506.489.873v.012-.001c0 .389-.212.727-.527.908l-.005.003zM15.522 12.3h.955v.886h-.955zm0 1.766h.955v.886h-.955zm0 1.766h.955v.886h-.955z"/></symbol><symbol id="mobile_learning" viewBox="0 0 32 32"><path d="M29.014.835H14.208a1.75 1.75 0 00-1.748 1.748v6.129L1.461 13.329a.357.357 0 00-.047.636l.002.001 1.403.84v8.947a1.62 1.62 0 00-1.256 1.574v.863c0 .198.16.358.358.358h2.512c.198 0 .358-.16.358-.358v-.863a1.619 1.619 0 00-1.245-1.571l-.011-.002v-8.519l1.109.664c-.034.256-.004-.446-.016 4.165 0 1.516 3.883 2.328 7.833 2.375v6.982a1.75 1.75 0 001.746 1.745h14.806a1.749 1.749 0 001.747-1.746c0 .048-.002-1.479 0-26.836A1.76 1.76 0 0029.015.836zM4.074 25.326v.504H2.278v-.504a.9.9 0 111.796 0zm24.94 5.121H14.208c-.355 0-.669-.18-.855-.453a1.018 1.018 0 01-.176-.574v-2.422h16.864v2.421a1.036 1.036 0 01-1.026 1.027zm1.027-4.165H13.177V22.44c1.929-.022 7.838-.447 7.838-2.376-.002-2.897.005-4.071-.01-4.171l3.217-1.927a.358.358 0 00-.044-.637l-.002-.001-10.999-4.617V5.719h16.864v20.562zm-17.223-8.597c-1.987 0-5.813.257-7.475 1.342.011-3.319-.115-3.104.294-3.385 1.033-.76 3.985-1.291 7.181-1.291 1.394 0 7.479.383 7.479 1.672v3.004c-1.678-1.095-5.484-1.342-7.479-1.342zm.359-15.102c0-.568.462-1.03 1.03-1.03h14.806c.568 0 1.028.468 1.028 1.03v2.421H13.177V2.583zm-.359 6.755l10.428 4.377-2.584 1.546c-1.374-1.362-5.918-1.626-7.844-1.626-1.929 0-6.473.265-7.844 1.627l-2.585-1.546 10.429-4.377zM5.344 20.064c0-.58 2.567-1.662 7.475-1.662 4.91 0 7.479 1.082 7.479 1.662s-2.569 1.662-7.479 1.662c-4.907 0-7.475-1.082-7.475-1.662z"/><path d="M21.61 27.539a1.185 1.185 0 000 2.369 1.185 1.185 0 000-2.369zm0 1.653h-.014a.469.469 0 010-.938h.016-.001a.469.469 0 010 .936h-.001zM20.244 2.92h2.733v.716h-2.733z"/></symbol><symbol id="noun_insurance" viewBox="0 0 27 32"><path d="M.54 13.692c0 .356-.54.356-.54 0C0 6.132 6.132 0 13.692 0c7.564 0 13.692 6.132 13.692 13.692 0 .356-.537.356-.537 0 0-5.11-8.398-5.114-8.398 0 0 .356-.553.356-.553 0 0-5.097-8.411-5.097-8.411 0 0 .356-.553.356-.553 0 0-5.088-8.394-5.123-8.394 0zm8.443-1.985c.145-2.941.608-5.579 1.28-7.593.537-1.6 1.215-2.815 1.985-3.497C6.475 1.247 1.801 5.624.757 11.3c1.988-2.867 6.578-2.638 8.226.407zm8.872-.132c-.149-2.828-.598-5.359-1.244-7.289-1.668-4.994-4.17-4.994-5.838 0-.646 1.93-1.093 4.461-1.244 7.289 1.794-3.048 6.533-3.048 8.326 0zm8.773-.275C25.587 5.624 20.913 1.247 15.137.617c.773.682 1.448 1.897 1.985 3.497.672 2.014 1.135 4.651 1.28 7.593 1.658-3.061 6.261-3.242 8.226-.407zm-14.733 8.656v-2.78c-.501.333-.895.847-.895 1.474 0 .611.401 1.015.895 1.306zm.54.863c-.96-.44-1.972-.954-1.972-2.169 0-1.254.954-1.881 1.972-2.35v4.519zm3.054 3.333v2.812c.507-.336.905-.853.905-1.48 0-.617-.407-1.034-.905-1.332zm-.536-.866c.963.446 1.981.976 1.981 2.198 0 1.257-.96 1.884-1.981 2.35v-4.548z"/><path d="M15.489 14.012c2.211.511 4.483 2.166 4.483 4.638 0 2.117-3.578 2.04-3.578 0 0-.63-.398-1.147-.905-1.48v3.956c2.046.669 4.49 1.868 4.49 4.357 0 2.476-2.272 4.128-4.49 4.635-.01 2.356-3.588 2.353-3.594-.003-1.261-.291-2.356-.879-3.148-1.658-.831-.821-1.322-1.852-1.322-2.974 0-2.085 3.575-2.085 3.575 0 0 .624.394 1.138.895 1.471v-3.953c-2.03-.656-4.486-1.891-4.486-4.357 0-2.476 2.272-4.128 4.486-4.635.01-2.356 3.588-2.353 3.594.003zm-3.054.007v.43c-2.104.417-4.49 1.765-4.49 4.196 0 2.337 2.618 3.384 4.49 3.963v5.223c-1.012-.462-1.972-1.086-1.972-2.347 0-1.377-2.502-1.377-2.502 0 0 .973.433 1.872 1.164 2.589.928.918 2.053 1.354 3.31 1.603v.433c0 1.658 2.518 1.658 2.518 0v-.43c2.111-.42 4.486-1.768 4.486-4.196 0-2.36-2.612-3.375-4.486-3.966v-5.22c1.015.462 1.981 1.086 1.981 2.353 0 1.341 2.499 1.396 2.499 0 0-2.427-2.373-3.779-4.48-4.199v-.433c0-1.658-2.518-1.658-2.518 0z"/></symbol><symbol id="open_book" viewBox="0 0 32 32"><path d="M4.649 8.009h9.568v.716H4.649zm1.432 2.671h8.135v.716H6.081zm-1.432 2.671h9.568v.716H4.649zm1.432 2.671h8.135v.716H6.081zm-1.432 2.671h9.568v.716H4.649zm1.432 2.672h8.135v.716H6.081zM17.783 8.009h9.568v.716h-9.568zm0 2.671h8.135v.716h-8.135zm0 2.671h9.568v.716h-9.568zm0 2.671h8.135v.716h-8.135zm0 2.671h9.568v.716h-9.568zm0 2.672h8.135v.716h-8.135z"/><path d="M30.806 7.193h-1.313V5.22a.358.358 0 00-.358-.358H18.414c-1.03 0-1.929.562-2.406 1.397l-.007.014a2.775 2.775 0 00-2.414-1.41H2.867a.358.358 0 00-.358.358v1.973H1.196a.358.358 0 00-.358.358v19.229c0 .198.16.358.358.358h29.612c.198 0 .358-.16.358-.358V7.552a.358.358 0 00-.358-.358zm-12.38-1.614h10.35v19.186H17.662c-.493 0-.985.208-1.304.478V7.636c0-1.136.921-2.057 2.057-2.057h.012-.001zm-15.202 0h10.364c1.109 0 2.013.881 2.05 1.981v.003c.001.015.002.064.005.079V25.24a2.1 2.1 0 00-1.299-.476H3.225V5.578zm-1.672 2.33h.955v17.213c0 .198.16.358.358.358h11.477a1.3 1.3 0 011.24.932l.002.009H1.551V7.909zm28.896 18.513H16.415a1.297 1.297 0 011.245-.941h11.474c.198 0 .358-.16.358-.358V7.91h.955v18.512z"/></symbol><symbol id="study_program" viewBox="0 0 32 32"><path d="M29.659 5.844l-.001-.002a.25.25 0 00-.023-.043l.001.001-.002-.003a.313.313 0 00-.031-.039l-4.421-4.421a.22.22 0 00-.037-.03l-.001-.001-.008-.005a.191.191 0 00-.032-.017l-.002-.001-.01-.004a.263.263 0 00-.09-.019H5.519a.261.261 0 00-.261.261v26.967c0 .018.002.035.005.052v-.002l.006.021c.003.009.005.019.009.028l.012.024.012.021a.27.27 0 00.03.037l.003.003 1.991 1.991a.262.262 0 00.37 0l1.807-1.806 1.807 1.806c.047.048.113.077.185.077s.138-.029.185-.077l1.806-1.806 1.807 1.806a.262.262 0 00.37 0l1.806-1.806 1.806 1.806a.262.262 0 00.37 0l1.808-1.806 1.806 1.806a.262.262 0 00.37 0l1.806-1.806 1.808 1.806a.262.262 0 00.37 0l1.991-1.991.01-.012.022-.027c.007-.01.01-.019.015-.028.003-.006.007-.011.009-.017.005-.012.008-.024.011-.036l.004-.012a.298.298 0 00.005-.053V5.945a.291.291 0 00-.022-.102l.001.002zm-4.402-3.691l3.529 3.529h-3.529V2.153zm3.899 26.226l-1.73 1.73-1.808-1.806a.262.262 0 00-.37 0l-1.806 1.806-1.806-1.806a.262.262 0 00-.37 0l-1.808 1.806-1.806-1.806a.262.262 0 00-.37 0l-1.806 1.806-1.807-1.806a.262.262 0 00-.37 0l-1.806 1.806-1.807-1.806a.262.262 0 00-.37 0l-1.807 1.806-1.73-1.73V1.783h18.955v4.16c0 .144.117.261.261.261h4.159v22.175z"/><path d="M7.729 4.255h8.559a.261.261 0 000-.522H7.729a.261.261 0 000 .522zm0 1.617h13.725a.261.261 0 000-.522H7.729a.261.261 0 000 .522zm-.262 1.451v8.463c0 .144.117.261.261.261h19.478a.261.261 0 00.261-.261V7.323a.261.261 0 00-.261-.261H7.728a.261.261 0 00-.261.261zm5.777.261h13.702v2.249H13.244V7.584zm0 2.772h13.702v2.248H13.244v-2.248zm0 2.771h13.702v2.397H13.244v-2.397zM7.99 7.584h4.731v2.249H7.99V7.584zm0 2.772h4.731v2.248H7.99v-2.248zm0 2.771h4.731v2.397H7.99v-2.397zm19.217 4.096H7.729a.261.261 0 00-.261.261v8.462a.261.261 0 00.522 0v-2.658h4.731v2.658a.261.261 0 00.522 0v-2.658h13.702v2.658a.261.261 0 00.522 0v-8.463a.26.26 0 00-.26-.26zm-14.486 5.543H7.99v-2.248h4.731v2.248zm0-2.771H7.99v-2.249h4.731v2.249zm14.224 2.771H13.243v-2.248h13.702v2.248zm0-2.771H13.243v-2.249h13.702v2.249zM4.018 1.26a.261.261 0 00-.261.261v26.966a.261.261 0 00.522 0V1.521a.261.261 0 00-.261-.261zm-1.437 0a.261.261 0 00-.261.261v26.966a.261.261 0 00.522 0V1.521a.261.261 0 00-.261-.261z"/></symbol><symbol id="icon-circle-up" viewBox="0 0 32 32"><path d="M0 16c0 8.837 7.163 16 16 16s16-7.163 16-16S24.837 0 16 0 0 7.163 0 16zm29 0c0 7.18-5.82 13-13 13S3 23.18 3 16 8.82 3 16 3s13 5.82 13 13z"/><path d="M22.086 20.914l2.829-2.829-8.914-8.914-8.914 8.914 2.828 2.828 6.086-6.086z"/></symbol></defs></svg>