<svg aria-hidden="true" style="position: absolute; width: 0; height: 0; overflow: hidden;" version="1.1" xmlns="http://www.w3.org/2000/svg" xmlns:xlink="http://www.w3.org/1999/xlink">
<defs>
<symbol id="facebook" viewBox="0 0 32 32">
<path d="M20.472 10.976h-0.11c0.39-0.153 0.661-0.526 0.661-0.963 0-0 0-0 0-0v0-3.584c0 0 0 0 0 0 0-0.569-0.46-1.030-1.028-1.032h-0l-2.958-0.013c-3.737 0-5.062 2.72-5.062 5.049v0.543c-0.555 0.020-0.998 0.474-0.998 1.032v3.992c0 0.56 0.444 1.014 0.998 1.032v8.947c0 0.57 0.462 1.032 1.032 1.032h3.992c0.57 0 1.032-0.462 1.032-1.032v0-8.947h2.091c0.536 0 0.982-0.408 1.027-0.942l0.351-3.992c0.002-0.026 0.004-0.056 0.004-0.086 0-0.571-0.461-1.034-1.031-1.036h-0zM19.176 14.968h-2.178c-0.57 0-1.032 0.462-1.032 1.032v0 8.946h-1.928v-8.946c0-0.56-0.443-1.014-0.998-1.032v-1.928c0.555-0.020 0.997-0.474 0.998-1.032v-1.574c0-1.115 0.39-2.984 2.994-2.984l1.926 0.008v1.52l-1.035-0.006c-1.864 0-1.958 1.384-1.958 1.662v1.374c0 0.57 0.462 1.032 1.032 1.032h2.348l-0.17 1.928z"></path>
<path d="M23.664 0h-15.332c-4.827 0-8.332 3.506-8.332 8.334v15.332c0 4.828 3.504 8.334 8.331 8.334h15.334c4.83 0 8.335-3.506 8.335-8.334v-15.332c0-4.829-3.506-8.334-8.336-8.334zM29.936 23.666c0 3.69-2.579 6.269-6.272 6.269h-15.332c-3.689 0-6.266-2.578-6.266-6.269v-15.332c0-3.691 2.578-6.27 6.266-6.27h15.334c3.692 0 6.27 2.578 6.27 6.27v15.332z"></path>
</symbol>
<symbol id="instagram" viewBox="0 0 32 32">
<path d="M18.768 13.82c-0.628-0.863-1.634-1.418-2.77-1.422h-0.001c-1.092 0-2.127 0.532-2.77 1.422-0.403 0.551-0.645 1.241-0.645 1.988 0 0.002 0 0.004 0 0.006v-0c0.002 1.885 1.53 3.413 3.416 3.414h0c1.886-0.001 3.415-1.53 3.418-3.416v-0c0-0.717-0.224-1.406-0.648-1.993zM15.998 17.164c-0.745-0-1.35-0.604-1.351-1.349v-0c0-0.282 0.088-0.554 0.256-0.784 0.246-0.345 0.645-0.566 1.095-0.566 0 0 0.001 0 0.001 0h-0c0.436 0 0.837 0.206 1.096 0.565 0.168 0.233 0.257 0.504 0.257 0.786-0.001 0.746-0.606 1.35-1.352 1.35-0.001 0-0.001 0-0.002 0h0z"></path>
<path d="M25.981 13.97h-5.121c-0 0-0.001 0-0.001 0-0.57 0-1.032 0.462-1.032 1.032 0 0.088 0.011 0.174 0.032 0.256l-0.002-0.007c0.135 0.543 0.257 0.799 0.35 0.934 0.006 0.040 0.006 0.092 0.006 0.164 0 2.226-1.812 3.904-4.214 3.904-2.482 0-4.215-1.541-4.215-3.748 0-0.168 0.010-0.21 0.010-0.21 0.010-0.036 0.025-0.065 0.040-0.104 0.072-0.173 0.181-0.435 0.306-0.941 0.019-0.074 0.030-0.158 0.030-0.246 0-0.57-0.462-1.033-1.032-1.034h-5.118c-0.57 0-1.032 0.462-1.032 1.032s0.462 1.032 1.032 1.032h3.725c-0.017 0.132-0.027 0.284-0.027 0.439 0 0.011 0 0.023 0 0.034v-0.002c0 3.314 2.7 5.813 6.28 5.813 3.578 0 6.278-2.566 6.28-5.968 0-0.12-0.004-0.222-0.011-0.315h3.714c0.57 0 1.032-0.462 1.032-1.032s-0.462-1.032-1.032-1.032v0zM25.594 9.4h-0.002l-4.43 0.009-0.010-3.394c-0.001-0.569-0.463-1.030-1.032-1.030h-0.002c-0.569 0.001-1.030 0.463-1.030 1.032 0 0.001 0 0.002 0 0.003v-0l0.011 4.426c0.001 0.569 0.463 1.030 1.032 1.030 0 0 0 0 0 0h0.004l5.462-0.011c0.569-0.001 1.031-0.462 1.031-1.032s-0.462-1.032-1.032-1.032c-0 0-0.001 0-0.001 0h0z"></path>
<path d="M21.885 4.989h-11.773c-2.728 0-5.122 2.214-5.122 4.738v11.773c0 2.48 2.364 5.511 5.122 5.511h11.774c2.76 0 5.126-3.031 5.126-5.512v-11.771c0-2.524-2.395-4.738-5.126-4.738zM24.946 21.5c0 1.578-1.66 3.446-3.062 3.446h-11.773c-1.4 0-3.058-1.868-3.058-3.446v-11.773c0-1.374 1.486-2.674 3.058-2.674h11.774c1.574 0 3.062 1.299 3.062 2.674v11.773z"></path>
<path d="M23.676 0h-15.354c-4.901 0-8.322 3.264-8.322 7.938v15.35c0 4.886 3.655 8.712 8.322 8.712h15.354c4.668 0 8.324-3.826 8.324-8.712v-15.35c0-4.674-3.423-7.938-8.324-7.938zM29.935 23.288c0 3.789-2.69 6.648-6.259 6.648h-15.354c-3.568 0-6.258-2.858-6.258-6.648v-15.35c0-3.569 2.456-5.874 6.258-5.874h15.354c3.802 0 6.259 2.304 6.259 5.874v15.35z"></path>
</symbol>
<symbol id="skype" viewBox="0 0 32 32">
<path d="M26.154 16.1c0-5.474-4.512-9.927-10.056-9.927-0.442 0-0.89 0.030-1.338 0.089-0.863-0.473-1.89-0.752-2.983-0.752-0.002 0-0.003 0-0.005 0h0c-3.453 0-6.263 2.778-6.263 6.193 0 0.968 0.23 1.923 0.67 2.784-0.085 0.485-0.133 1.044-0.134 1.613v0c0 5.474 4.51 9.928 10.054 9.928 0.497 0 0.999-0.038 1.494-0.11 0.773 0.36 1.678 0.571 2.632 0.572h0c3.453 0 6.263-2.778 6.263-6.19 0-0.005 0-0.010 0-0.016 0-0.869-0.183-1.695-0.511-2.442l0.015 0.039c0.107-0.587 0.162-1.184 0.162-1.781zM20.226 24.426c-0.003 0-0.008 0-0.012 0-0.725 0-1.408-0.182-2.005-0.504l0.023 0.011c-0.14-0.076-0.306-0.121-0.483-0.121-0.065 0-0.128 0.006-0.19 0.018l0.006-0.001c-0.483 0.088-0.978 0.132-1.466 0.132-4.405 0-7.989-3.527-7.989-7.862 0-0.531 0.054-1.062 0.162-1.58 0.014-0.063 0.021-0.135 0.021-0.209 0-0.195-0.054-0.377-0.148-0.533l0.003 0.005c-0.361-0.594-0.574-1.312-0.574-2.080v-0c0-2.276 1.883-4.128 4.198-4.128 0.793 0 1.567 0.221 2.238 0.638 0.214 0.134 0.47 0.185 0.716 0.142 0.412-0.074 0.886-0.116 1.371-0.117h0.001c4.406 0 7.99 3.528 7.99 7.863 0 0.566-0.061 1.134-0.182 1.688-0.015 0.067-0.024 0.143-0.024 0.222 0 0.169 0.041 0.328 0.112 0.469l-0.003-0.006c0.286 0.571 0.431 1.185 0.431 1.827 0 2.276-1.883 4.127-4.198 4.127z"></path>
<path d="M23.563 0h-15.13c-4.729 0-8.433 3.705-8.433 8.434v15.131c0 4.73 3.704 8.434 8.432 8.434h15.131c4.731 0 8.437-3.705 8.437-8.434v-15.131c0-4.73-3.706-8.434-8.437-8.434zM29.935 23.566c0 3.632-2.739 6.37-6.372 6.37h-15.13c-3.63 0-6.368-2.738-6.368-6.37v-15.131c0-3.632 2.738-6.37 6.368-6.37h15.13c3.632 0 6.372 2.738 6.372 6.37v15.131z"></path>
<path d="M19.792 16.765c-0.26-0.466-0.636-0.839-1.090-1.088l-0.014-0.007c-0.223-0.125-0.483-0.241-0.755-0.334l-0.034-0.010c-0.289-0.1-0.715-0.223-1.147-0.33l-0.127-0.027-0.778-0.2c-0.808-0.177-1.108-0.332-1.194-0.386-0.108-0.069-0.194-0.166-0.248-0.28l-0.002-0.004c-0.074-0.15-0.11-0.348-0.11-0.587 0-0.547 0.195-0.771 0.364-0.903 0.315-0.246 0.855-0.376 1.562-0.376 0.643 0 1.128 0.133 1.438 0.394 0.174 0.146 0.408 0.413 0.43 1.036 0.027 0.555 0.483 0.995 1.043 0.995 0.009 0 0.018-0 0.026-0l-0.001 0c0.554-0.020 0.996-0.474 0.996-1.031 0-0.013-0-0.026-0.001-0.038l0 0.002c-0.037-1.056-0.44-1.936-1.166-2.544-0.691-0.583-1.622-0.878-2.766-0.878-1.19 0-2.142 0.275-2.835 0.816-0.526 0.414-1.155 1.189-1.155 2.529 0 0.554 0.107 1.056 0.318 1.488 0.224 0.464 0.557 0.841 0.994 1.122 0.418 0.266 1.010 0.476 1.772 0.638l0.815 0.212c0.523 0.133 0.893 0.236 1.107 0.308 0.168 0.058 0.318 0.12 0.448 0.193 0.125 0.064 0.226 0.16 0.294 0.277l0.002 0.003c0.072 0.131 0.108 0.311 0.108 0.535 0 0.627-0.229 0.894-0.426 1.056-0.349 0.283-0.895 0.427-1.624 0.427-0.717 0-1.261-0.148-1.618-0.44-0.201-0.164-0.472-0.464-0.508-1.163-0.028-0.547-0.479-0.98-1.030-0.98-0.57 0-1.032 0.462-1.032 1.032 0 0.018 0 0.036 0.001 0.054l-0-0.003c0.056 1.126 0.48 2.021 1.262 2.659 0.734 0.6 1.718 0.905 2.924 0.905 1.217 0 2.202-0.3 2.93-0.89 0.776-0.634 1.186-1.552 1.186-2.656 0-0.574-0.121-1.087-0.36-1.525z"></path>
</symbol>
<symbol id="viber" viewBox="0 0 32 32">
<path d="M17.206 6.908c4.227 0.14 8.031 4.037 7.979 8.176-0 0.004-0 0.009-0 0.014 0 0.566 0.455 1.026 1.019 1.033h0.014c0 0 0 0 0 0 0.566 0 1.025-0.455 1.032-1.019v-0.001c0.066-5.291-4.595-10.088-9.976-10.265-0.563-0.046-1.046 0.428-1.066 0.997-0 0.010-0.001 0.022-0.001 0.034 0 0.558 0.442 1.012 0.996 1.031l0.002 0z"></path>
<path d="M16.963 10.342c2.629 0.31 4.752 2.509 4.73 4.902-0 0.003-0 0.006-0 0.010 0 0.567 0.458 1.027 1.024 1.032h0.008c0 0 0.001 0 0.001 0 0.567 0 1.027-0.457 1.032-1.022v-0.001c0.029-3.415-2.911-6.542-6.554-6.971-0.027-0.002-0.057-0.004-0.089-0.004-0.57 0-1.033 0.462-1.033 1.033 0 0.516 0.379 0.944 0.874 1.021l0.006 0.001z"></path>
<path d="M25.782 19.962l-0.297-0.227c-0.542-0.427-1.109-0.815-1.657-1.19l-0.366-0.251c-1.006-0.691-1.962-0.958-2.84-0.79-0.824 0.157-1.54 0.678-2.125 1.547-0.138 0.203-0.27 0.398-0.869 0.132-1.048-0.466-1.954-1.055-2.69-1.752l-1.806-2.572c-0.304-0.712-0.138-0.926 0.275-1.202 0.522-0.349 1.608-1.074 1.528-2.53-0.082-1.469-2.984-5.351-4.372-5.85-0.632-0.228-1.29-0.233-1.958-0.010-1.51 0.498-2.598 1.394-3.144 2.589-0.525 1.146-0.503 2.472 0.062 3.83 2.889 6.96 8.051 12.049 15.344 15.127 0.375 0.159 0.76 0.242 1.015 0.299l0.174 0.040c0.095 0.025 0.194 0.034 0.292 0.034 2.117 0 4.274-1.906 4.895-3.63 0.71-1.968-0.65-2.986-1.463-3.594zM25.302 22.855c-0.395 1.098-1.812 2.203-2.866 2.262-0.069-0.013-0.106-0.022-0.144-0.030l0.032 0.006c-0.202-0.045-0.453-0.099-0.653-0.184-6.776-2.861-11.566-7.577-14.241-14.017-0.338-0.815-0.37-1.568-0.090-2.178 0.303-0.659 0.965-1.174 1.916-1.488 0.12-0.040 0.228-0.060 0.33-0.060 0 0 0.001 0 0.001 0 0.094 0 0.185 0.018 0.268 0.050l-0.005-0.002c0.723 0.333 2.9 3.245 3.025 4.027 0.010 0.168-0.028 0.307-0.611 0.696-0.78 0.521-1.944 1.712-0.973 3.857 0.026 0.059 0.058 0.114 0.094 0.166l1.922 2.738c0.038 0.054 0.080 0.104 0.126 0.15 0.924 0.895 2.054 1.642 3.357 2.221 1.384 0.619 2.632 0.304 3.419-0.864 0.266-0.397 0.534-0.622 0.798-0.673 0.4-0.076 0.918 0.21 1.283 0.462l0.37 0.254c0.524 0.357 1.048 0.715 1.544 1.107 0.111 0.088 0.226 0.173 0.339 0.258 0.88 0.658 0.921 0.79 0.758 1.241z"></path>
<path d="M23.416 0h-14.832c-4.653 0-8.584 3.932-8.584 8.584v14.83c0 4.654 3.931 8.586 8.584 8.586h14.832c4.652 0 8.584-3.932 8.584-8.586v-14.83c0-4.652-3.931-8.584-8.584-8.584zM29.936 23.414c0 3.534-2.986 6.521-6.52 6.521h-14.832c-3.533 0-6.52-2.985-6.52-6.52v-14.83c0-3.533 2.987-6.52 6.52-6.52h14.832c3.534 0 6.52 2.986 6.52 6.52v14.83z"></path>
</symbol>
<symbol id="youtube" viewBox="0 0 32 32">
<path d="M19.6 14.838l-4.93-2.682c-0.143-0.079-0.313-0.126-0.494-0.126-0.57 0-1.032 0.462-1.032 1.032 0 0 0 0.001 0 0.001v-0l0.002 5.342c0.001 0.569 0.463 1.031 1.032 1.032h0c0.169 0 0.338-0.040 0.491-0.123l4.927-2.66c0.324-0.179 0.54-0.518 0.54-0.908 0-0.389-0.214-0.727-0.531-0.904l-0.005-0.003zM15.211 16.675l-0.001-1.876 1.73 0.942-1.728 0.934z"></path>
<path d="M23.355 0h-14.59c-4.67 0-8.766 4.039-8.766 8.644v14.589c0 4.589 4.178 8.767 8.766 8.767h14.589c4.606 0 8.646-4.097 8.646-8.767v-14.589c0-4.604-4.040-8.644-8.645-8.644zM29.935 23.233c0 3.508-3.136 6.702-6.58 6.702h-14.59c-3.444 0-6.701-3.256-6.701-6.702v-14.589c0-3.443 3.194-6.579 6.701-6.579h14.589c3.444 0 6.581 3.136 6.581 6.579v14.589z"></path>
<path d="M25.034 9.491c-0.926-1.006-1.973-1.131-2.51-1.194-2.546-0.192-6.386-0.313-6.456-0.314h-0.042c-0.038 0.002-3.872 0.122-6.464 0.318-0.974 0.101-1.827 0.557-2.438 1.234l-0.003 0.003c-0.744 0.784-0.948 2.197-0.984 2.499-0.090 0.943-0.144 2.048-0.15 3.165l-0 0.011v1.442c0 1.568 0.142 3.108 0.15 3.188 0.029 0.276 0.214 1.696 0.95 2.474 0.832 0.91 1.848 1.037 2.394 1.104 0.068 0.008 0.128 0.015 0.27 0.038 1.488 0.15 6.094 0.195 6.299 0.198 0.158 0 3.887-0.008 6.449-0.2l0.152-0.017c0.432-0.046 1.445-0.153 2.322-1.11 0.752-0.795 0.924-2.218 0.954-2.541 0.005-0.064 0.086-1.584 0.086-3.134v-1.442c0-1.547-0.082-3.098-0.086-3.167-0.016-0.286-0.139-1.757-0.894-2.555zM23.95 16.655c0 1.478-0.080 2.978-0.078 2.978-0.043 0.442-0.227 1.096-0.409 1.29-0.36 0.393-0.7 0.429-1.028 0.463l-0.089 0.011c-2.485 0.186-6.259 0.194-6.285 0.194-0.046 0-4.705-0.046-6.008-0.174-0.088-0.018-0.196-0.031-0.317-0.046-0.378-0.048-0.807-0.1-1.138-0.462-0.178-0.187-0.359-0.83-0.408-1.272-0.002-0.016-0.138-1.508-0.138-2.983v-1.442c0-1.462 0.138-2.952 0.138-2.952 0.058-0.463 0.25-1.112 0.441-1.317 0.284-0.322 0.679-0.539 1.124-0.591l0.008-0.001c2.387-0.179 5.953-0.294 6.3-0.306 0.346 0.010 3.916 0.126 6.306 0.307 0.311 0.038 0.738 0.088 1.154 0.542 0.146 0.154 0.312 0.77 0.344 1.263 0 0.016 0.082 1.562 0.082 3.054v1.442z"></path>
</symbol>
<symbol id="call" viewBox="0 0 32 32">
<path d="M4.656 0.629c-0.515 0.024-1.021 0.243-1.391 0.651l-2.595 2.853c0.004-0.008-0.010-0.007-0.083 0.097-0.037 0.051-0.068 0.109-0.088 0.172l-0.001 0.004c-1.057 3.362-0.348 7.063 1.376 10.583 1.724 3.52 4.475 6.888 7.633 9.652 3.158 2.765 6.721 4.926 10.12 5.999 3.397 1.073 6.691 1.058 9.131-0.714 0.028-0.020 0.053-0.041 0.076-0.064l-0 0c0.063-0.064 0.065-0.073 0.056-0.062l0.010-0.012 2.582-2.841c0.323-0.357 0.52-0.832 0.52-1.353 0-0.588-0.251-1.117-0.652-1.486l-6.129-5.572c-0.357-0.323-0.832-0.52-1.353-0.52-0.588 0-1.117 0.251-1.486 0.652l-2.772 3.049c-2.25-0.652-4.174-1.756-6.023-3.439-1.85-1.682-3.133-3.495-3.994-5.672l2.77-3.048c0.323-0.357 0.521-0.832 0.521-1.354 0-0.588-0.251-1.117-0.652-1.486l-6.127-5.572c-0.355-0.323-0.828-0.52-1.347-0.52-0.035 0-0.070 0.001-0.105 0.003l0.005-0zM4.717 1.879c0.008-0 0.018-0.001 0.028-0.001 0.198 0 0.378 0.077 0.512 0.202l-0-0 6.125 5.571c0.316 0.287 0.337 0.745 0.051 1.061l-3.064 3.366c-0.101 0.111-0.163 0.26-0.163 0.423 0 0.078 0.014 0.153 0.040 0.221l-0.001-0.004c0.93 2.536 2.43 4.618 4.493 6.495s4.275 3.174 6.888 3.858c0.049 0.013 0.104 0.021 0.162 0.021 0.184 0 0.349-0.079 0.464-0.205l0-0 3.064-3.367c0.136-0.154 0.333-0.251 0.554-0.251 0.196 0 0.374 0.077 0.506 0.202l-0-0 6.127 5.571c0.314 0.288 0.336 0.745 0.048 1.059l-2.56 2.816c-2.003 1.439-4.826 1.519-7.986 0.52-3.172-1-6.617-3.076-9.666-5.744-3.048-2.668-5.701-5.926-7.333-9.254-1.613-3.295-2.199-6.625-1.311-9.56l2.501-2.749c0.129-0.145 0.313-0.24 0.518-0.251l0.002-0z"></path>
</symbol>
</defs>
</svg>
