<svg version="1.1" xmlns="http://www.w3.org/2000/svg" width="30" height="30" viewBox="0 0 30 30" fill="#ff6b08">
<title>call</title>
<path d="M4.656 0.629c-0.515 0.024-1.021 0.243-1.391 0.651l-2.595 2.853c0.004-0.008-0.010-0.007-0.083 0.097-0.037 0.051-0.068 0.109-0.088 0.172l-0.001 0.004c-1.057 3.362-0.348 7.063 1.376 10.583 1.724 3.52 4.475 6.888 7.633 9.652 3.158 2.765 6.721 4.926 10.12 5.999 3.397 1.073 6.691 1.058 9.131-0.714 0.028-0.020 0.053-0.041 0.076-0.064l-0 0c0.063-0.064 0.065-0.073 0.056-0.062l0.010-0.012 2.582-2.841c0.323-0.357 0.52-0.832 0.52-1.353 0-0.588-0.251-1.117-0.652-1.486l-6.129-5.572c-0.357-0.323-0.832-0.52-1.353-0.52-0.588 0-1.117 0.251-1.486 0.652l-2.772 3.049c-2.25-0.652-4.174-1.756-6.023-3.439-1.85-1.682-3.133-3.495-3.994-5.672l2.77-3.048c0.323-0.357 0.521-0.832 0.521-1.354 0-0.588-0.251-1.117-0.652-1.486l-6.127-5.572c-0.355-0.323-0.828-0.52-1.347-0.52-0.035 0-0.070 0.001-0.105 0.003l0.005-0zM4.717 1.879c0.008-0 0.018-0.001 0.028-0.001 0.198 0 0.378 0.077 0.512 0.202l-0-0 6.125 5.571c0.316 0.287 0.337 0.745 0.051 1.061l-3.064 3.366c-0.101 0.111-0.163 0.26-0.163 0.423 0 0.078 0.014 0.153 0.040 0.221l-0.001-0.004c0.93 2.536 2.43 4.618 4.493 6.495s4.275 3.174 6.888 3.858c0.049 0.013 0.104 0.021 0.162 0.021 0.184 0 0.349-0.079 0.464-0.205l0-0 3.064-3.367c0.136-0.154 0.333-0.251 0.554-0.251 0.196 0 0.374 0.077 0.506 0.202l-0-0 6.127 5.571c0.314 0.288 0.336 0.745 0.048 1.059l-2.56 2.816c-2.003 1.439-4.826 1.519-7.986 0.52-3.172-1-6.617-3.076-9.666-5.744-3.048-2.668-5.701-5.926-7.333-9.254-1.613-3.295-2.199-6.625-1.311-9.56l2.501-2.749c0.129-0.145 0.313-0.24 0.518-0.251l0.002-0z"></path>
</svg>
