<svg version="1.1" xmlns="http://www.w3.org/2000/svg"  viewBox="0 0 32 32">
<title>facebook</title>
<path d="M20.472 10.976h-0.11c0.39-0.153 0.661-0.526 0.661-0.963 0-0 0-0 0-0v0-3.584c0 0 0 0 0 0 0-0.569-0.46-1.030-1.028-1.032h-0l-2.958-0.013c-3.737 0-5.062 2.72-5.062 5.049v0.543c-0.555 0.020-0.998 0.474-0.998 1.032v3.992c0 0.56 0.444 1.014 0.998 1.032v8.947c0 0.57 0.462 1.032 1.032 1.032h3.992c0.57 0 1.032-0.462 1.032-1.032v0-8.947h2.091c0.536 0 0.982-0.408 1.027-0.942l0.351-3.992c0.002-0.026 0.004-0.056 0.004-0.086 0-0.571-0.461-1.034-1.031-1.036h-0zM19.176 14.968h-2.178c-0.57 0-1.032 0.462-1.032 1.032v0 8.946h-1.928v-8.946c0-0.56-0.443-1.014-0.998-1.032v-1.928c0.555-0.020 0.997-0.474 0.998-1.032v-1.574c0-1.115 0.39-2.984 2.994-2.984l1.926 0.008v1.52l-1.035-0.006c-1.864 0-1.958 1.384-1.958 1.662v1.374c0 0.57 0.462 1.032 1.032 1.032h2.348l-0.17 1.928z"></path>
<path d="M23.664 0h-15.332c-4.827 0-8.332 3.506-8.332 8.334v15.332c0 4.828 3.504 8.334 8.331 8.334h15.334c4.83 0 8.335-3.506 8.335-8.334v-15.332c0-4.829-3.506-8.334-8.336-8.334zM29.936 23.666c0 3.69-2.579 6.269-6.272 6.269h-15.332c-3.689 0-6.266-2.578-6.266-6.269v-15.332c0-3.691 2.578-6.27 6.266-6.27h15.334c3.692 0 6.27 2.578 6.27 6.27v15.332z"></path>
</svg>