<svg version="1.1" xmlns="http://www.w3.org/2000/svg"  viewBox="0 0 32 32">
<title>instagram</title>
<path d="M18.768 13.82c-0.628-0.863-1.634-1.418-2.77-1.422h-0.001c-1.092 0-2.127 0.532-2.77 1.422-0.403 0.551-0.645 1.241-0.645 1.988 0 0.002 0 0.004 0 0.006v-0c0.002 1.885 1.53 3.413 3.416 3.414h0c1.886-0.001 3.415-1.53 3.418-3.416v-0c0-0.717-0.224-1.406-0.648-1.993zM15.998 17.164c-0.745-0-1.35-0.604-1.351-1.349v-0c0-0.282 0.088-0.554 0.256-0.784 0.246-0.345 0.645-0.566 1.095-0.566 0 0 0.001 0 0.001 0h-0c0.436 0 0.837 0.206 1.096 0.565 0.168 0.233 0.257 0.504 0.257 0.786-0.001 0.746-0.606 1.35-1.352 1.35-0.001 0-0.001 0-0.002 0h0z"></path>
<path d="M25.981 13.97h-5.121c-0 0-0.001 0-0.001 0-0.57 0-1.032 0.462-1.032 1.032 0 0.088 0.011 0.174 0.032 0.256l-0.002-0.007c0.135 0.543 0.257 0.799 0.35 0.934 0.006 0.040 0.006 0.092 0.006 0.164 0 2.226-1.812 3.904-4.214 3.904-2.482 0-4.215-1.541-4.215-3.748 0-0.168 0.010-0.21 0.010-0.21 0.010-0.036 0.025-0.065 0.040-0.104 0.072-0.173 0.181-0.435 0.306-0.941 0.019-0.074 0.030-0.158 0.030-0.246 0-0.57-0.462-1.033-1.032-1.034h-5.118c-0.57 0-1.032 0.462-1.032 1.032s0.462 1.032 1.032 1.032h3.725c-0.017 0.132-0.027 0.284-0.027 0.439 0 0.011 0 0.023 0 0.034v-0.002c0 3.314 2.7 5.813 6.28 5.813 3.578 0 6.278-2.566 6.28-5.968 0-0.12-0.004-0.222-0.011-0.315h3.714c0.57 0 1.032-0.462 1.032-1.032s-0.462-1.032-1.032-1.032v0zM25.594 9.4h-0.002l-4.43 0.009-0.010-3.394c-0.001-0.569-0.463-1.030-1.032-1.030h-0.002c-0.569 0.001-1.030 0.463-1.030 1.032 0 0.001 0 0.002 0 0.003v-0l0.011 4.426c0.001 0.569 0.463 1.030 1.032 1.030 0 0 0 0 0 0h0.004l5.462-0.011c0.569-0.001 1.031-0.462 1.031-1.032s-0.462-1.032-1.032-1.032c-0 0-0.001 0-0.001 0h0z"></path>
<path d="M21.885 4.989h-11.773c-2.728 0-5.122 2.214-5.122 4.738v11.773c0 2.48 2.364 5.511 5.122 5.511h11.774c2.76 0 5.126-3.031 5.126-5.512v-11.771c0-2.524-2.395-4.738-5.126-4.738zM24.946 21.5c0 1.578-1.66 3.446-3.062 3.446h-11.773c-1.4 0-3.058-1.868-3.058-3.446v-11.773c0-1.374 1.486-2.674 3.058-2.674h11.774c1.574 0 3.062 1.299 3.062 2.674v11.773z"></path>
<path d="M23.676 0h-15.354c-4.901 0-8.322 3.264-8.322 7.938v15.35c0 4.886 3.655 8.712 8.322 8.712h15.354c4.668 0 8.324-3.826 8.324-8.712v-15.35c0-4.674-3.423-7.938-8.324-7.938zM29.935 23.288c0 3.789-2.69 6.648-6.259 6.648h-15.354c-3.568 0-6.258-2.858-6.258-6.648v-15.35c0-3.569 2.456-5.874 6.258-5.874h15.354c3.802 0 6.259 2.304 6.259 5.874v15.35z"></path>
</svg>