<svg version="1.1" xmlns="http://www.w3.org/2000/svg"  viewBox="0 0 32 32">
<title>youtube</title>
<path d="M19.6 14.838l-4.93-2.682c-0.143-0.079-0.313-0.126-0.494-0.126-0.57 0-1.032 0.462-1.032 1.032 0 0 0 0.001 0 0.001v-0l0.002 5.342c0.001 0.569 0.463 1.031 1.032 1.032h0c0.169 0 0.338-0.040 0.491-0.123l4.927-2.66c0.324-0.179 0.54-0.518 0.54-0.908 0-0.389-0.214-0.727-0.531-0.904l-0.005-0.003zM15.211 16.675l-0.001-1.876 1.73 0.942-1.728 0.934z"></path>
<path d="M23.355 0h-14.59c-4.67 0-8.766 4.039-8.766 8.644v14.589c0 4.589 4.178 8.767 8.766 8.767h14.589c4.606 0 8.646-4.097 8.646-8.767v-14.589c0-4.604-4.040-8.644-8.645-8.644zM29.935 23.233c0 3.508-3.136 6.702-6.58 6.702h-14.59c-3.444 0-6.701-3.256-6.701-6.702v-14.589c0-3.443 3.194-6.579 6.701-6.579h14.589c3.444 0 6.581 3.136 6.581 6.579v14.589z"></path>
<path d="M25.034 9.491c-0.926-1.006-1.973-1.131-2.51-1.194-2.546-0.192-6.386-0.313-6.456-0.314h-0.042c-0.038 0.002-3.872 0.122-6.464 0.318-0.974 0.101-1.827 0.557-2.438 1.234l-0.003 0.003c-0.744 0.784-0.948 2.197-0.984 2.499-0.090 0.943-0.144 2.048-0.15 3.165l-0 0.011v1.442c0 1.568 0.142 3.108 0.15 3.188 0.029 0.276 0.214 1.696 0.95 2.474 0.832 0.91 1.848 1.037 2.394 1.104 0.068 0.008 0.128 0.015 0.27 0.038 1.488 0.15 6.094 0.195 6.299 0.198 0.158 0 3.887-0.008 6.449-0.2l0.152-0.017c0.432-0.046 1.445-0.153 2.322-1.11 0.752-0.795 0.924-2.218 0.954-2.541 0.005-0.064 0.086-1.584 0.086-3.134v-1.442c0-1.547-0.082-3.098-0.086-3.167-0.016-0.286-0.139-1.757-0.894-2.555zM23.95 16.655c0 1.478-0.080 2.978-0.078 2.978-0.043 0.442-0.227 1.096-0.409 1.29-0.36 0.393-0.7 0.429-1.028 0.463l-0.089 0.011c-2.485 0.186-6.259 0.194-6.285 0.194-0.046 0-4.705-0.046-6.008-0.174-0.088-0.018-0.196-0.031-0.317-0.046-0.378-0.048-0.807-0.1-1.138-0.462-0.178-0.187-0.359-0.83-0.408-1.272-0.002-0.016-0.138-1.508-0.138-2.983v-1.442c0-1.462 0.138-2.952 0.138-2.952 0.058-0.463 0.25-1.112 0.441-1.317 0.284-0.322 0.679-0.539 1.124-0.591l0.008-0.001c2.387-0.179 5.953-0.294 6.3-0.306 0.346 0.010 3.916 0.126 6.306 0.307 0.311 0.038 0.738 0.088 1.154 0.542 0.146 0.154 0.312 0.77 0.344 1.263 0 0.016 0.082 1.562 0.082 3.054v1.442z"></path>
</svg>